<svg width="24" height="25" viewBox="0 0 24 25" fill="none" xmlns="http://www.w3.org/2000/svg">
<path d="M24 22.9495H23.2046V7.61149H24V6.20885H18.6266V8.99829H20.8541V10.4009H18.6266V11.8037H20.8541V13.2063H18.6266V14.6088H20.8541V16.0114H18.6266V17.4142H20.8541V18.8168H18.6266V22.9496H17.2672V3.56116L12 0.352051L6.7328 3.56111V22.9495H5.37342V18.8166H3.16148V17.4142H5.37342V16.0114H3.16148V14.6088H5.37342V13.2061H3.16148V11.8036H5.37342V10.4008H3.16148V8.99824H5.37342V6.2088H0V7.61139H0.810937V22.9494H0V24.3521H24V22.9495ZM13.9638 6.00635H15.3664V7.40894H13.9638V6.00635ZM13.9638 8.9516H15.3664V10.3542H13.9638V8.9516ZM13.9638 11.897H15.3664V13.2996H13.9638V11.897ZM13.9638 14.8423H15.3664V16.2449H13.9638V14.8423ZM13.9638 17.7875H15.3664V19.1901H13.9638V17.7875ZM11.2987 6.00635H12.7013V7.40894H11.2987V6.00635ZM11.2987 8.9516H12.7013V10.3542H11.2987V8.9516ZM11.2987 11.897H12.7013V13.2996H11.2987V11.897ZM11.2987 14.8423H12.7013V16.2449H11.2987V14.8423ZM11.2987 17.7875H12.7013V19.1901H11.2987V17.7875ZM8.58708 6.00635H9.98986V7.40894H8.58708V6.00635ZM8.58708 8.9516H9.98986V10.3542H8.58708V8.9516ZM8.58708 11.897H9.98986V13.2996H8.58708V11.897ZM8.58708 14.8423H9.98986V16.2449H8.58708V14.8423ZM8.58708 17.7875H9.98986V19.1901H8.58708V17.7875ZM11.2987 20.4525H12.7013V22.9495H11.2987V20.4525Z" fill="#8DC540"/>
</svg>
