<?xml version="1.0" encoding="utf-8"?>
<!-- Generator: Adobe Illustrator 21.0.0, SVG Export Plug-In . SVG Version: 6.00 Build 0)  -->
<svg version="1.1" id="Layer_1" xmlns="http://www.w3.org/2000/svg" xmlns:xlink="http://www.w3.org/1999/xlink" x="0px" y="0px"
	 viewBox="0 0 24 24" style="enable-background:new 0 0 24 24;" xml:space="preserve">
<style type="text/css">
	.st0{fill:#8DC540;}
	.st1{fill:#FFFFFF;filter:url(#Adobe_OpacityMaskFilter);}
	.st2{mask:url(#path-5-inside-2_4741_35445);fill:#8DC540;}
	.st3{fill:#FFFFFF;filter:url(#Adobe_OpacityMaskFilter_1_);}
	.st4{mask:url(#path-7-inside-3_4741_35445);fill:#8DC540;}
</style>
<path class="st0" d="M17,23c-3.3,0-6-2.7-6-6c0-3.3,2.7-6,6-6c3.3,0,6,2.7,6,6C23,20.3,20.3,23,17,23z M17,12.5
	c-2.5,0-4.6,2.1-4.6,4.6c0,2.5,2.1,4.6,4.6,4.6c2.5,0,4.6-2.1,4.6-4.6C21.6,14.5,19.6,12.5,17,12.5z"/>
<path class="st0" d="M19.2,19.9c-0.2,0-0.3-0.1-0.4-0.2L16.6,18c-0.1-0.1-0.1-0.1-0.2-0.2c0-0.1-0.1-0.2-0.1-0.3v-3.1
	c0-0.2,0.1-0.4,0.2-0.5c0.1-0.1,0.3-0.2,0.5-0.2c0.2,0,0.4,0.1,0.5,0.2c0.1,0.1,0.2,0.3,0.2,0.5v2.7l1.9,1.6
	c0.1,0.1,0.2,0.2,0.2,0.3c0,0.1,0,0.3,0,0.4c0,0.1-0.1,0.3-0.3,0.3C19.5,19.9,19.4,19.9,19.2,19.9z M10,13.8H6.3
	c-0.2,0-0.4-0.1-0.5-0.2c-0.1-0.1-0.2-0.3-0.2-0.5c0-0.2,0.1-0.4,0.2-0.5c0.1-0.1,0.3-0.2,0.5-0.2H10c0.2,0,0.4,0.1,0.5,0.2
	c0.1,0.1,0.2,0.3,0.2,0.5c0,0.2-0.1,0.4-0.2,0.5C10.4,13.8,10.2,13.8,10,13.8z M14.1,10.2H6.3c-0.2,0-0.4-0.1-0.5-0.2
	C5.7,9.8,5.6,9.7,5.6,9.5c0-0.2,0.1-0.4,0.2-0.5C6,8.9,6.1,8.8,6.3,8.8h7.8c0.2,0,0.4,0.1,0.5,0.2c0.1,0.1,0.2,0.3,0.2,0.5
	c0,0.2-0.1,0.4-0.2,0.5C14.5,10.1,14.3,10.2,14.1,10.2z M15,6.5H6.3C6.1,6.5,6,6.4,5.8,6.3C5.7,6.2,5.6,6,5.6,5.8s0.1-0.4,0.2-0.5
	C6,5.2,6.1,5.1,6.3,5.1H15c0.2,0,0.4,0.1,0.5,0.2c0.1,0.1,0.2,0.3,0.2,0.5s-0.1,0.4-0.2,0.5C15.3,6.4,15.2,6.5,15,6.5z"/>
<path class="st0" d="M22.3,6h-4.6c-0.2,0-0.4-0.1-0.5-0.2C17.1,5.7,17,5.5,17,5.4V4c0-1.6,1.3-3,3-3c1.6,0,3,1.3,3,3v1.4
	c0,0.2-0.1,0.4-0.2,0.5C22.7,6,22.5,6,22.3,6z M18.4,4.7h3.2V4c0-0.9-0.7-1.6-1.6-1.6S18.4,3.1,18.4,4V4.7z M11,23H3.5
	c-0.7,0-1.3-0.3-1.8-0.7C1.3,21.8,1,21.1,1,20.5v-2.7c0-0.2,0.1-0.4,0.2-0.5c0.1-0.1,0.3-0.2,0.5-0.2h7.4c0.2,0,0.4,0.1,0.5,0.2
	c0.1,0.1,0.2,0.3,0.2,0.5c0,0.2-0.1,0.4-0.2,0.5c-0.1,0.1-0.3,0.2-0.5,0.2H2.4v2c0,0.6,0.5,1.1,1.1,1.1H11c0.2,0,0.4,0.1,0.5,0.2
	c0.1,0.1,0.2,0.3,0.2,0.5s-0.1,0.4-0.2,0.5C11.4,22.9,11.2,23,11,23z"/>
<defs>
	<filter id="Adobe_OpacityMaskFilter" filterUnits="userSpaceOnUse" x="-1" y="-1" width="26" height="26">
		<feColorMatrix  type="matrix" values="1 0 0 0 0  0 1 0 0 0  0 0 1 0 0  0 0 0 1 0"/>
	</filter>
</defs>
<mask maskUnits="userSpaceOnUse" x="-1" y="-1" width="26" height="26" id="path-5-inside-2_4741_35445">
	<path class="st1" d="M22.3,6h-4.6c-0.2,0-0.4-0.1-0.5-0.2C17.1,5.7,17,5.5,17,5.4V4c0-1.6,1.3-3,3-3c1.6,0,3,1.3,3,3v1.4
		c0,0.2-0.1,0.4-0.2,0.5C22.7,6,22.5,6,22.3,6z M18.4,4.7h3.2V4c0-0.9-0.7-1.6-1.6-1.6S18.4,3.1,18.4,4V4.7z M11,23H3.5
		c-0.7,0-1.3-0.3-1.8-0.7C1.3,21.8,1,21.1,1,20.5v-2.7c0-0.2,0.1-0.4,0.2-0.5c0.1-0.1,0.3-0.2,0.5-0.2h7.4c0.2,0,0.4,0.1,0.5,0.2
		c0.1,0.1,0.2,0.3,0.2,0.5c0,0.2-0.1,0.4-0.2,0.5c-0.1,0.1-0.3,0.2-0.5,0.2H2.4v2c0,0.6,0.5,1.1,1.1,1.1H11c0.2,0,0.4,0.1,0.5,0.2
		c0.1,0.1,0.2,0.3,0.2,0.5s-0.1,0.4-0.2,0.5C11.4,22.9,11.2,23,11,23z"/>
</mask>
<path class="st2" d="M22.3,6v2V6z M17.7,6v2V6z M18.4,4.7h-2v2h2V4.7z M21.6,4.7v2h2v-2H21.6z M3.5,23l0,2h0V23z M1,20.5h-2v0
	L1,20.5z M1,17.8h-2H1z M2.4,18.5v-2h-2v2H2.4z M22.3,4h-4.6v4h4.6V4z M17.7,4c0.3,0,0.7,0.1,0.9,0.4l-2.8,2.8C16.3,7.8,17,8,17.7,8
	V4z M18.7,4.4C18.9,4.7,19,5,19,5.4h-4c0,0.7,0.3,1.4,0.8,1.9L18.7,4.4z M19,5.4V4h-4v1.4H19z M19,4c0-0.5,0.4-1,1-1v-4
	c-2.7,0-5,2.2-5,5H19z M20,3c0.5,0,1,0.4,1,1h4c0-2.7-2.2-5-5-5V3z M21,4v1.4h4V4H21z M21,5.4c0-0.3,0.1-0.7,0.4-0.9l2.8,2.8
	C24.7,6.8,25,6.1,25,5.4H21z M21.4,4.4C21.6,4.2,22,4,22.3,4v4c0.7,0,1.4-0.3,1.9-0.8L21.4,4.4z M18.4,6.7h3.2v-4h-3.2V6.7z
	 M23.6,4.7V4h-4v0.7H23.6z M23.6,4c0-2-1.6-3.6-3.6-3.6v4c-0.2,0-0.4-0.2-0.4-0.4H23.6z M20,0.4c-2,0-3.6,1.6-3.6,3.6h4
	c0,0.2-0.2,0.4-0.4,0.4V0.4z M16.4,4v0.7h4V4H16.4z M11,21H3.5v4H11V21z M3.5,21c-0.1,0-0.3-0.1-0.4-0.2l-2.8,2.8
	c0.8,0.8,2,1.3,3.2,1.3L3.5,21z M3.2,20.8C3.1,20.7,3,20.6,3,20.5l-4,0c0,1.2,0.5,2.3,1.3,3.2L3.2,20.8z M3,20.5v-2.7h-4v2.7H3z
	 M3,17.8c0,0.3-0.1,0.7-0.4,0.9l-2.8-2.8C-0.7,16.4-1,17.1-1,17.8H3z M2.6,18.7c-0.2,0.2-0.6,0.4-0.9,0.4v-4c-0.7,0-1.4,0.3-1.9,0.8
	L2.6,18.7z M1.7,19.1h7.4v-4H1.7V19.1z M9.1,19.1c-0.3,0-0.7-0.1-0.9-0.4l2.8-2.8c-0.5-0.5-1.2-0.8-1.9-0.8V19.1z M8.1,18.7
	c-0.2-0.2-0.4-0.6-0.4-0.9h4c0-0.7-0.3-1.4-0.8-1.9L8.1,18.7z M7.7,17.8c0-0.3,0.1-0.7,0.4-0.9l2.8,2.8c0.5-0.5,0.8-1.2,0.8-1.9H7.7
	z M8.1,16.8c0.2-0.2,0.6-0.4,0.9-0.4v4c0.7,0,1.4-0.3,1.9-0.8L8.1,16.8z M9.1,16.5H2.4v4h6.7V16.5z M0.4,18.5v2h4v-2H0.4z M0.4,20.5
	c0,1.7,1.4,3.1,3.1,3.1v-4c0.5,0,0.9,0.4,0.9,0.9H0.4z M3.5,23.6H11v-4H3.5V23.6z M11,23.6c-0.3,0-0.7-0.1-0.9-0.4l2.8-2.8
	c-0.5-0.5-1.2-0.8-1.9-0.8V23.6z M10.1,23.2c-0.2-0.2-0.4-0.6-0.4-0.9h4c0-0.7-0.3-1.4-0.8-1.9L10.1,23.2z M9.7,22.3
	c0-0.3,0.1-0.7,0.4-0.9l2.8,2.8c0.5-0.5,0.8-1.2,0.8-1.9H9.7z M10.1,21.4c0.2-0.2,0.6-0.4,0.9-0.4v4c0.7,0,1.4-0.3,1.9-0.8
	L10.1,21.4z"/>
<path class="st0" d="M17.7,9.7c-0.2,0-0.4-0.1-0.5-0.2C17.1,9.4,17,9.2,17,9.1V5.4c0-0.2,0.1-0.4,0.2-0.5c0.1-0.1,0.3-0.2,0.5-0.2
	c0.2,0,0.4,0.1,0.5,0.2c0.1,0.1,0.2,0.3,0.2,0.5v3.7c0,0.2-0.1,0.4-0.2,0.5C18.1,9.7,17.9,9.7,17.7,9.7z"/>
<defs>
	<filter id="Adobe_OpacityMaskFilter_1_" filterUnits="userSpaceOnUse" x="15" y="2.7" width="5.4" height="9.1">
		<feColorMatrix  type="matrix" values="1 0 0 0 0  0 1 0 0 0  0 0 1 0 0  0 0 0 1 0"/>
	</filter>
</defs>
<mask maskUnits="userSpaceOnUse" x="15" y="2.7" width="5.4" height="9.1" id="path-7-inside-3_4741_35445">
	<path class="st3" d="M17.7,9.7c-0.2,0-0.4-0.1-0.5-0.2C17.1,9.4,17,9.2,17,9.1V5.4c0-0.2,0.1-0.4,0.2-0.5c0.1-0.1,0.3-0.2,0.5-0.2
		c0.2,0,0.4,0.1,0.5,0.2c0.1,0.1,0.2,0.3,0.2,0.5v3.7c0,0.2-0.1,0.4-0.2,0.5C18.1,9.7,17.9,9.7,17.7,9.7z"/>
</mask>
<path class="st4" d="M17.7,4.7v-2V4.7z M17.7,7.7c0.3,0,0.7,0.1,0.9,0.4L15.8,11c0.5,0.5,1.2,0.8,1.9,0.8V7.7z M18.7,8.1
	C18.9,8.4,19,8.7,19,9.1h-4c0,0.7,0.3,1.4,0.8,1.9L18.7,8.1z M19,9.1V5.4h-4v3.7H19z M19,5.4c0,0.3-0.1,0.7-0.4,0.9l-2.8-2.8
	C15.3,4,15,4.6,15,5.4H19z M18.7,6.3c-0.2,0.2-0.6,0.4-0.9,0.4v-4c-0.7,0-1.4,0.3-1.9,0.8L18.7,6.3z M17.7,6.7
	c-0.3,0-0.7-0.1-0.9-0.4l2.8-2.8c-0.5-0.5-1.2-0.8-1.9-0.8V6.7z M16.8,6.3c-0.2-0.2-0.4-0.6-0.4-0.9h4c0-0.7-0.3-1.4-0.8-1.9
	L16.8,6.3z M16.4,5.4v3.7h4V5.4H16.4z M16.4,9.1c0-0.3,0.1-0.7,0.4-0.9l2.8,2.8c0.5-0.5,0.8-1.2,0.8-1.9H16.4z M16.8,8.1
	c0.2-0.2,0.6-0.4,0.9-0.4v4c0.7,0,1.4-0.3,1.9-0.8L16.8,8.1z"/>
<path class="st0" d="M7.1,1C4.7,1,2.7,3.1,2.7,5.7v12.7h1.2V5.7c0-1.9,1.4-3.5,3.2-3.5h13V1H7.1z"/>
</svg>
