<svg width="24" height="24" viewBox="0 0 24 24" fill="none" xmlns="http://www.w3.org/2000/svg">
<path d="M12.0003 19.3187V15.7303M21.2073 19.3659V17.6189C21.2073 16.5759 20.3617 15.7303 19.3187 15.7303H15.7303M2.79326 19.3659V17.6189C2.79326 16.5759 3.63884 15.7303 4.68188 15.7303H8.27025M14.3138 12.1891H9.68672M10.1117 21.2545C10.1117 22.2976 10.9572 23.1431 12.0003 23.1431C13.0433 23.1431 13.8889 22.2976 13.8889 21.2545C13.8889 20.2115 13.0433 19.3659 12.0003 19.3659C10.9572 19.3659 10.1117 20.2115 10.1117 21.2545ZM17.6189 6.52328V3.2182C17.6189 1.91439 16.562 0.857422 15.2581 0.857422H8.74241C7.4386 0.857422 6.38163 1.91439 6.38163 3.2182V6.52328C6.38163 7.82709 7.4386 8.88406 8.74241 8.88406H15.2581C16.562 8.88406 17.6189 7.82709 17.6189 6.52328ZM2.74604 19.3659C3.78908 19.3659 4.63466 20.2115 4.63466 21.2545C4.63466 22.2976 3.78908 23.1431 2.74604 23.1431C1.703 23.1431 0.857422 22.2976 0.857422 21.2545C0.857422 20.2115 1.703 19.3659 2.74604 19.3659ZM21.2545 19.3659C22.2976 19.3659 23.1431 20.2115 23.1431 21.2545C23.1431 22.2976 22.2976 23.1431 21.2545 23.1431C20.2115 23.1431 19.3659 22.2976 19.3659 21.2545C19.3659 20.2115 20.2115 19.3659 21.2545 19.3659Z" stroke="#8DC540" stroke-width="1.7" stroke-miterlimit="10" stroke-linecap="round" stroke-linejoin="round"/>
</svg>
