<?xml version="1.0" encoding="utf-8"?>
<!-- Generator: Adobe Illustrator 21.0.0, SVG Export Plug-In . SVG Version: 6.00 Build 0)  -->
<svg version="1.1" id="Layer_1" xmlns="http://www.w3.org/2000/svg" xmlns:xlink="http://www.w3.org/1999/xlink" x="0px" y="0px"
	 viewBox="0 0 20 22" style="enable-background:new 0 0 20 22;" xml:space="preserve">
<style type="text/css">
	.st0{fill:#8DC541;}
	.st1{fill:#8DC441;}
</style>
<g>
	<path class="st0" d="M0,10.6c0-0.3,0-0.7,0-1.1c0.1-0.7,0.7-1.2,1.5-1.2c0.2,0,0.3,0,0.5,0c0.2,0,0.3-0.1,0.4-0.3
		c0.1-0.3,0.2-0.5,0.3-0.8c0.1-0.2,0-0.3-0.1-0.4C2.5,6.6,2.4,6.5,2.3,6.4c-0.6-0.6-0.6-1.5,0-2.1c0.4-0.4,0.9-0.9,1.3-1.3
		c0.6-0.6,1.5-0.6,2.1,0C5.8,3,6,3.1,6.1,3.3c0.1,0.1,0.3,0.2,0.4,0.1C6.8,3.2,7,3.1,7.3,3c0.2-0.1,0.3-0.2,0.3-0.4
		c0-0.2,0-0.5,0-0.7C7.7,1.2,8.3,0.7,9,0.7c0.6,0,1.3,0,1.9,0c0.8,0,1.5,0.7,1.5,1.5c0,0.2,0,0.3,0,0.5c0,0.2,0.1,0.3,0.3,0.4
		c0.3,0.1,0.5,0.2,0.8,0.3c0.2,0.1,0.3,0,0.4-0.1C14,3.1,14.2,3,14.3,2.9c0.6-0.6,1.5-0.6,2.1,0c0.4,0.4,0.9,0.9,1.3,1.3
		c0.6,0.6,0.6,1.5,0,2.1c-0.1,0.1-0.2,0.2-0.3,0.3c-0.1,0.1-0.2,0.3-0.1,0.5c0.1,0.2,0.2,0.5,0.3,0.7c0.1,0.2,0.2,0.3,0.4,0.3
		c0.2,0,0.5,0,0.7,0C19.5,8.4,20,9,20,9.7c0,0.6,0,1.3,0,1.9c0,0.8-0.7,1.5-1.5,1.5c-0.2,0-0.3,0-0.5,0c-0.2,0-0.3,0.1-0.4,0.3
		c-0.1,0.3-0.2,0.5-0.3,0.8c-0.1,0.2,0,0.3,0.1,0.4c0.1,0.1,0.2,0.2,0.3,0.3c0.6,0.6,0.6,1.5,0,2.1c-0.4,0.4-0.9,0.9-1.3,1.3
		c-0.2,0.2-0.4,0.2-0.7,0.1c-0.2-0.1-0.3-0.3-0.3-0.6c0-0.1,0.1-0.3,0.2-0.4c0.4-0.4,0.8-0.8,1.3-1.3c0.2-0.2,0.2-0.4,0-0.6
		c-0.1-0.1-0.2-0.2-0.3-0.3c-0.5-0.5-0.6-1.1-0.3-1.8c0.1-0.2,0.2-0.5,0.3-0.7c0.2-0.6,0.8-1,1.4-1c0.2,0,0.3,0,0.5,0
		c0.2,0,0.4-0.2,0.4-0.4c0-0.6,0-1.2,0-1.9c0-0.2-0.2-0.4-0.4-0.4c-0.2,0-0.5,0-0.7,0c-0.5-0.1-0.9-0.4-1.1-0.8
		c-0.2-0.4-0.4-0.8-0.5-1.2c-0.1-0.5,0-1,0.4-1.3c0.1-0.1,0.2-0.2,0.3-0.3c0.2-0.2,0.2-0.4,0-0.6c-0.4-0.4-0.9-0.9-1.3-1.3
		c-0.2-0.2-0.4-0.2-0.6,0c-0.1,0.1-0.2,0.2-0.3,0.3c-0.5,0.4-1.1,0.6-1.7,0.3c-0.3-0.1-0.5-0.2-0.8-0.3c-0.5-0.2-0.9-0.8-0.9-1.4
		c0-0.2,0-0.3,0-0.5c0-0.3-0.2-0.4-0.4-0.4c-0.6,0-1.2,0-1.8,0c-0.3,0-0.4,0.2-0.4,0.4c0,0.2,0,0.5,0,0.7C8.6,3.4,8.3,3.7,7.9,4
		C7.5,4.2,7.1,4.4,6.7,4.5c-0.5,0.1-1,0-1.3-0.4C5.2,4,5.1,3.9,5,3.7c-0.2-0.2-0.4-0.2-0.6,0C4,4.2,3.5,4.6,3.1,5.1
		c-0.1,0.2-0.1,0.4,0,0.5c0.1,0.1,0.2,0.2,0.3,0.3C3.8,6.4,4,7,3.7,7.6C3.6,7.9,3.5,8.1,3.4,8.4C3.2,8.9,2.6,9.3,2,9.3
		c-0.2,0-0.3,0-0.5,0c-0.2,0-0.4,0.2-0.4,0.4c0,0.6,0,1.2,0,1.9c0,0.2,0.2,0.4,0.4,0.4c0.2,0,0.5,0,0.7,0c0.5,0.1,0.9,0.4,1.1,0.8
		c0.2,0.4,0.4,0.8,0.5,1.2c0.1,0.5,0,1-0.4,1.3c-0.1,0.1-0.2,0.2-0.3,0.3c-0.2,0.2-0.2,0.4,0,0.6c0.4,0.4,0.8,0.8,1.3,1.3
		c0.2,0.2,0.2,0.4,0.2,0.6c-0.1,0.2-0.2,0.4-0.4,0.4c-0.2,0-0.4,0-0.5-0.2c-0.5-0.5-0.9-0.9-1.4-1.4c-0.5-0.6-0.5-1.5,0-2
		c0.1-0.1,0.2-0.2,0.4-0.4c0.1-0.1,0.2-0.3,0.1-0.5c-0.1-0.2-0.2-0.5-0.3-0.7c-0.1-0.2-0.2-0.3-0.4-0.3c-0.3,0-0.5,0-0.8,0
		C0.5,12.9,0,12.3,0,11.6C0,11.3,0,11,0,10.6z"/>
	<path class="st1" d="M10,21.4c-0.5,0-1,0-1.5,0c-0.8,0-1.4-0.6-1.4-1.3c0-0.1,0-0.2-0.2-0.2c-0.8,0-1.4-0.6-1.3-1.4
		c0-0.3,0-0.7,0-1c0.1-0.6,0.7-1,1.3-1c0.1,0,0.2,0.1,0.2,0c0.1-0.1,0-0.3-0.1-0.4c-0.3-0.2-0.5-0.3-0.8-0.6c-1.1-1-1.8-2.2-2-3.7
		C3.8,8.8,5.7,6,8.7,5.3c1.9-0.4,3.7,0,5.2,1.4c1.1,1,1.7,2.2,1.9,3.6c0.2,1.8-0.3,3.4-1.6,4.8c-0.4,0.4-0.8,0.7-1.2,1
		c-0.1,0.1-0.2,0.3-0.1,0.4c0,0.1,0.1,0,0.1,0c0.3,0,0.6,0.1,0.9,0.3c0.3,0.3,0.5,0.6,0.5,1c0,0.3,0,0.7,0,1
		c-0.1,0.6-0.6,1.1-1.3,1.1c-0.2,0-0.2,0-0.2,0.2c0,0.7-0.6,1.3-1.3,1.3C11,21.4,10.5,21.4,10,21.4z M10,16.5c0.5,0,1,0,1.6,0
		c0.1,0,0.2,0,0.2-0.1c0-0.6,0.2-1,0.7-1.3c1.8-1.1,2.7-3.2,2.1-5.2C13.9,7.5,11.6,6,9.2,6.4C6.8,6.8,5,9.1,5.3,11.5
		c0.2,1.5,0.9,2.7,2.3,3.6c0.5,0.3,0.8,0.7,0.7,1.3c0,0.1,0,0.1,0.2,0.1C9,16.5,9.5,16.5,10,16.5z M10,18.8c1,0,2,0,2.9,0
		c0.2,0,0.3-0.1,0.3-0.3c0-0.2,0-0.4,0-0.6c0-0.2-0.1-0.2-0.2-0.2c-2,0-3.9,0-5.9,0c-0.2,0-0.2,0.1-0.2,0.2c0,0.2,0,0.4,0,0.6
		c0,0.2,0.1,0.3,0.3,0.3C8.1,18.8,9,18.8,10,18.8z M10,19.9c-0.5,0-1,0-1.5,0c-0.2,0-0.2,0-0.2,0.2c0,0.1,0.1,0.2,0.2,0.2
		c1,0,1.9,0,2.9,0c0,0,0.1,0,0.1,0c0.1,0,0.2-0.1,0.2-0.3c0-0.1-0.1-0.1-0.2-0.1C11,19.9,10.5,19.9,10,19.9z"/>
	<path class="st0" d="M9.4,14.1C9.6,13.7,9.3,13.4,9,13c-0.3-0.2-0.5-0.5-0.8-0.8c-0.3-0.3-0.3-0.6,0-0.8c0.2-0.2,0.6-0.2,0.8,0
		c0.3,0.3,0.6,0.6,1,1c0.1,0.1,0.1,0.1,0.2,0c0.3-0.3,0.6-0.6,1-1c0.3-0.3,0.6-0.3,0.8,0c0.2,0.2,0.2,0.6-0.1,0.8
		c-0.4,0.4-0.8,0.8-1.2,1.2c-0.1,0.1-0.1,0.1-0.1,0.2c0,0.4,0,0.7,0,1.1c0,0.4-0.2,0.6-0.6,0.6c-0.3,0-0.6-0.3-0.6-0.6
		C9.4,14.6,9.4,14.4,9.4,14.1z"/>
</g>
</svg>
