<svg width="21" height="23" viewBox="0 0 21 23" fill="none" xmlns="http://www.w3.org/2000/svg">
<path d="M5.25 0C2.3505 0 0 2.3505 0 5.25V17.25C0 20.1495 2.3505 22.5 5.25 22.5H11.4188C10.9745 22.081 10.6287 21.5687 10.4062 21H5.25C3.17887 21 1.5 19.3211 1.5 17.25V5.25C1.5 3.17887 3.17887 1.5 5.25 1.5H13.5C15.5711 1.5 17.25 3.17887 17.25 5.25V11.625H18C18.2561 11.625 18.5066 11.6482 18.75 11.6929V5.25C18.75 2.3505 16.3995 0 13.5 0H5.25Z" fill="#8DC540"/>
<path d="M4.125 7.5C4.125 7.30109 4.20402 7.11032 4.34467 6.96967C4.48532 6.82902 4.67609 6.75 4.875 6.75H10.125C10.3239 6.75 10.5147 6.82902 10.6553 6.96967C10.796 7.11032 10.875 7.30109 10.875 7.5C10.875 7.69891 10.796 7.88968 10.6553 8.03033C10.5147 8.17098 10.3239 8.25 10.125 8.25H4.875C4.67609 8.25 4.48532 8.17098 4.34467 8.03033C4.20402 7.88968 4.125 7.69891 4.125 7.5ZM4.125 10.5C4.125 10.3011 4.20402 10.1103 4.34467 9.96967C4.48532 9.82902 4.67609 9.75 4.875 9.75H13.875C14.0739 9.75 14.2647 9.82902 14.4053 9.96967C14.546 10.1103 14.625 10.3011 14.625 10.5C14.625 10.6989 14.546 10.8897 14.4053 11.0303C14.2647 11.171 14.0739 11.25 13.875 11.25H4.875C4.67609 11.25 4.48532 11.171 4.34467 11.0303C4.20402 10.8897 4.125 10.6989 4.125 10.5ZM18.2213 16.9545C18.3354 16.796 18.3832 16.5991 18.3545 16.4059C18.3257 16.2126 18.2227 16.0382 18.0673 15.9197C17.9119 15.8013 17.7164 15.7482 17.5225 15.7717C17.3285 15.7951 17.1514 15.8934 17.0287 16.0455L15.6015 17.9183L15.2032 17.436C15.1413 17.3577 15.0644 17.2926 14.977 17.2445C14.8896 17.1963 14.7934 17.1661 14.6942 17.1556C14.5949 17.1451 14.4946 17.1545 14.399 17.1832C14.3035 17.212 14.2146 17.2595 14.1377 17.3231C14.0607 17.3866 13.9972 17.4648 13.9509 17.5532C13.9045 17.6416 13.8763 17.7384 13.8678 17.8378C13.8594 17.9372 13.8708 18.0374 13.9016 18.1323C13.9323 18.2273 13.9816 18.3151 14.0468 18.3907L15.0465 19.6024C15.1184 19.6896 15.2091 19.7594 15.3118 19.8067C15.4145 19.8539 15.5265 19.8773 15.6396 19.8752C15.7526 19.873 15.8637 19.8453 15.9645 19.7942C16.0653 19.743 16.1532 19.6698 16.2218 19.5799L18.2213 16.9545Z" fill="#8DC540"/>
<path fill-rule="evenodd" clip-rule="evenodd" d="M14.25 12.75C13.4544 12.75 12.6913 13.0661 12.1287 13.6287C11.5661 14.1913 11.25 14.9544 11.25 15.75V19.5C11.25 20.2956 11.5661 21.0587 12.1287 21.6213C12.6913 22.1839 13.4544 22.5 14.25 22.5H18C18.7956 22.5 19.5587 22.1839 20.1213 21.6213C20.6839 21.0587 21 20.2956 21 19.5V15.75C21 14.9544 20.6839 14.1913 20.1213 13.6287C19.5587 13.0661 18.7956 12.75 18 12.75H14.25ZM12.75 15.75C12.75 15.3522 12.908 14.9706 13.1893 14.6893C13.4706 14.408 13.8522 14.25 14.25 14.25H18C18.3978 14.25 18.7794 14.408 19.0607 14.6893C19.342 14.9706 19.5 15.3522 19.5 15.75V19.5C19.5 19.8978 19.342 20.2794 19.0607 20.5607C18.7794 20.842 18.3978 21 18 21H14.25C13.8522 21 13.4706 20.842 13.1893 20.5607C12.908 20.2794 12.75 19.8978 12.75 19.5V15.75Z" fill="#8DC540"/>
</svg>
