<svg width="114" height="151" viewBox="0 0 114 151" fill="none" xmlns="http://www.w3.org/2000/svg">
<path fill-rule="evenodd" clip-rule="evenodd" d="M79.1114 71.7119H7.94832C4.06453 71.7119 0.916016 68.5634 0.916016 64.6796V41.143C0.916016 37.2592 4.06453 34.111 7.94832 34.111H42.6978C47.0466 43.7275 56.7384 50.4455 67.9485 50.4455C79.1585 50.4455 88.8469 43.7275 93.1936 34.111H102.956C106.839 34.111 109.988 37.2592 109.988 41.143V64.6796C109.988 68.426 107.058 71.4879 103.365 71.7002V63.1964C103.365 56.5234 97.918 51.0625 91.245 51.0625C84.5748 51.0625 79.1114 56.5262 79.1114 63.1964V71.7119ZM12.6389 49.6865H41.5138C42.8747 49.6865 43.9792 48.5817 43.9792 47.2212C43.9792 45.8603 42.8747 44.7559 41.5138 44.7559H12.6389C11.2783 44.7559 10.1736 45.8603 10.1736 47.2212C10.1736 48.5817 11.2783 49.6865 12.6389 49.6865ZM12.6389 61.067H65.6856C67.0465 61.067 68.1509 59.9622 68.1509 58.6017C68.1509 57.2412 67.0465 56.1364 65.6856 56.1364H12.6389C11.2783 56.1364 10.1736 57.2412 10.1736 58.6017C10.1736 59.9622 11.2783 61.067 12.6389 61.067ZM94.6749 139.642H47.6331C47.5635 139.488 47.487 139.336 47.4038 139.189C45.8904 136.486 45.1875 133.837 45.1875 130.742V100.591C45.1875 97.0097 48.1203 94.0905 51.6882 94.0905C53.8235 94.0905 55.7153 95.1176 56.9048 96.7123V95.6313C56.9048 91.9688 59.8915 88.9685 63.5537 88.9685C66.1756 88.9685 68.4462 90.4958 69.5407 92.7121C69.6082 88.7389 72.8923 85.5223 76.8658 85.5223C80.3795 85.5223 83.3255 88.0092 84.042 91.3201V63.1964C84.042 59.2365 87.2854 55.9931 91.245 55.9931C95.205 55.9931 98.4348 59.2365 98.4348 63.1964V97.3881L100.922 97.4556C108.084 97.6313 113.085 102.078 113.085 109.24L111.963 121.863C111.544 126.634 108.557 130.31 104.422 132.715L97.1103 136.972C95.9945 137.623 95.1646 138.545 94.6749 139.642ZM48.1474 144.573H94.1643V151H48.1474V144.573ZM67.9485 45.5149C55.4136 45.5149 45.1875 35.2956 45.1875 22.761C45.1875 10.2261 55.4136 0 67.9485 0C80.4833 0 90.7024 10.2261 90.7024 22.761C90.7024 35.2956 80.4833 45.5149 67.9485 45.5149ZM64.9608 24.7641L59.8749 19.6781C58.5575 18.3607 56.4185 18.3607 55.1014 19.6781C53.784 21.0023 53.784 23.1345 55.1014 24.4516L62.5775 31.9344C63.8946 33.2518 66.0335 33.2518 67.3509 31.9344C71.8597 27.4257 76.3139 22.8695 80.8023 18.3404C82.1129 17.0162 82.1061 14.8843 80.7887 13.5737C79.4713 12.2631 77.3327 12.2699 76.0221 13.5873L64.9608 24.7641Z" fill="#8DC540"/>
</svg>
