<svg width="142" height="143" viewBox="0 0 142 143" fill="none" xmlns="http://www.w3.org/2000/svg">
<path d="M71 0.71875C57.0008 0.71875 43.316 4.87 31.6761 12.6475C20.0362 20.4251 10.9639 31.4796 5.60668 44.4132C0.249419 57.3468 -1.15229 71.5785 1.57882 85.3087C4.30993 99.039 11.0512 111.651 20.9501 121.55C30.8491 131.449 43.4611 138.19 57.1913 140.921C70.9215 143.652 85.1533 142.251 98.0868 136.893C111.02 131.536 122.075 122.464 129.852 110.824C137.63 99.184 141.781 85.4992 141.781 71.5C141.775 52.7296 134.316 34.7297 121.043 21.457C107.77 8.1843 89.7705 0.725004 71 0.71875ZM71 113.969C69.1335 113.969 67.3088 113.415 65.7568 112.378C64.2048 111.341 62.9952 109.867 62.2809 108.143C61.5666 106.418 61.3797 104.521 61.7439 102.69C62.108 100.859 63.0069 99.1778 64.3267 97.8579C65.6466 96.5381 67.3282 95.6392 69.1589 95.2751C70.9896 94.9109 72.8871 95.0978 74.6116 95.8121C76.3361 96.5264 77.81 97.7361 78.847 99.2881C79.884 100.84 80.4375 102.665 80.4375 104.531C80.4301 107.032 79.4334 109.428 77.6651 111.196C75.8969 112.965 73.5007 113.961 71 113.969ZM81.806 40.7809L78.6444 78.6253C78.4795 80.5391 77.6028 82.3215 76.1874 83.6202C74.772 84.9189 72.921 85.6395 71 85.6395C69.0791 85.6395 67.2281 84.9189 65.8127 83.6202C64.3973 82.3215 63.5205 80.5391 63.3557 78.6253L60.1941 40.7809C60.0578 39.3151 60.2211 37.8368 60.6741 36.4361C61.1271 35.0353 61.8604 33.7414 62.8293 32.633C63.7982 31.5246 64.9824 30.6249 66.31 29.9886C67.6376 29.3524 69.0808 28.9929 70.5517 28.932C72.0226 28.8711 73.4906 29.1101 74.8662 29.6344C76.2418 30.1588 77.4964 30.9575 78.5536 31.9821C79.6108 33.0066 80.4485 34.2355 81.0157 35.594C81.583 36.9525 81.8679 38.4123 81.8532 39.8844C81.861 40.184 81.8452 40.4838 81.806 40.7809Z" fill="#8DC540"/>
</svg>
