<svg width="25" height="25" viewBox="0 0 25 25" fill="none" xmlns="http://www.w3.org/2000/svg">
<path d="M12.1205 14.5305C12.1005 14.5305 12.0705 14.5305 12.0505 14.5305C12.0205 14.5305 11.9805 14.5305 11.9505 14.5305C9.68047 14.4605 7.98047 12.6905 7.98047 10.5105C7.98047 8.29047 9.79047 6.48047 12.0105 6.48047C14.2305 6.48047 16.0405 8.29047 16.0405 10.5105C16.0305 12.7005 14.3205 14.4605 12.1505 14.5305C12.1305 14.5305 12.1305 14.5305 12.1205 14.5305ZM12.0005 7.97047C10.6005 7.97047 9.47047 9.11047 9.47047 10.5005C9.47047 11.8705 10.5405 12.9805 11.9005 13.0305C11.9305 13.0205 12.0305 13.0205 12.1305 13.0305C13.4705 12.9605 14.5205 11.8605 14.5305 10.5005C14.5305 9.11047 13.4005 7.97047 12.0005 7.97047Z" fill="#8DC540"/>
<path d="M12.0008 23.7503C9.31081 23.7503 6.74081 22.7503 4.75081 20.9303C4.57081 20.7703 4.49081 20.5303 4.51081 20.3003C4.64081 19.1103 5.38081 18.0003 6.61081 17.1803C9.59081 15.2003 14.4208 15.2003 17.3908 17.1803C18.6208 18.0103 19.3608 19.1103 19.4908 20.3003C19.5208 20.5403 19.4308 20.7703 19.2508 20.9303C17.2608 22.7503 14.6908 23.7503 12.0008 23.7503ZM6.08081 20.1003C7.74081 21.4903 9.83081 22.2503 12.0008 22.2503C14.1708 22.2503 16.2608 21.4903 17.9208 20.1003C17.7408 19.4903 17.2608 18.9003 16.5508 18.4203C14.0908 16.7803 9.92081 16.7803 7.44081 18.4203C6.73081 18.9003 6.26081 19.4903 6.08081 20.1003Z" fill="#8DC540"/>
<path d="M12.25 24.25C5.63047 24.25 0.25 18.8695 0.25 12.25C0.25 5.63047 5.63047 0.25 12.25 0.25C18.8695 0.25 24.25 5.63047 24.25 12.25C24.25 18.8695 18.8695 24.25 12.25 24.25ZM12.25 1.92442C6.55698 1.92442 1.92442 6.55698 1.92442 12.25C1.92442 17.943 6.55698 22.5756 12.25 22.5756C17.943 22.5756 22.5756 17.943 22.5756 12.25C22.5756 6.55698 17.943 1.92442 12.25 1.92442Z" fill="#8DC540"/>
</svg>
