<svg width="32" height="32" viewBox="0 0 32 32" fill="none" xmlns="http://www.w3.org/2000/svg">
<g clip-path="url(#clip0_4741_63686)">
<path d="M27.1401 24.3599L22.1552 19.375C22.0418 19.2623 21.8951 19.1889 21.7369 19.1656C21.5786 19.1423 21.417 19.1704 21.2759 19.2456L16.7177 14.6875L16.75 14.6553C17.0425 14.3628 17.0425 13.8873 16.75 13.5948L16.1552 13L18.1401 11.0151C18.175 10.9804 18.2027 10.939 18.2215 10.8935C18.2404 10.848 18.25 10.7993 18.25 10.75C18.25 9.19902 17.6462 7.74102 16.5494 6.64377L15.9809 6.07602C15.443 5.53504 14.8031 5.10614 14.0984 4.81416C13.3936 4.52218 12.6379 4.37292 11.875 4.37502C11.8257 4.37495 11.777 4.38462 11.7315 4.40348C11.686 4.42234 11.6446 4.45001 11.6099 4.4849L4.48488 11.6099C4.45 11.6447 4.42234 11.686 4.40349 11.7315C4.38463 11.777 4.37495 11.8258 4.375 11.875C4.375 13.426 4.97875 14.884 6.07562 15.9813L6.64412 16.549C7.182 17.09 7.82186 17.5189 8.52664 17.8109C9.23142 18.1029 9.98713 18.2521 10.75 18.25C10.8497 18.25 10.945 18.2106 11.0151 18.1401L13 16.1553L13.5947 16.75C13.741 16.8963 13.933 16.9694 14.125 16.9694C14.317 16.9694 14.509 16.8963 14.6552 16.75L14.6875 16.7178L19.2456 21.2759C19.096 21.559 19.1369 21.9171 19.375 22.1553L24.3599 27.1401C24.5132 27.2944 24.6956 27.4166 24.8965 27.4998C25.0974 27.5831 25.3128 27.6256 25.5302 27.625H25.9697C26.4119 27.625 26.8274 27.4529 27.1401 27.1405C27.4529 26.8281 27.625 26.4123 27.625 25.9698V25.5303C27.6257 25.3128 27.5832 25.0974 27.4999 24.8965C27.4167 24.6955 27.2944 24.5132 27.1401 24.3599ZM23.875 22.1553L24.4697 22.75L22.75 24.4698L22.1552 23.875L23.875 22.1553ZM21.625 23.3448L21.0302 22.75L22.75 21.0303L23.3447 21.625L21.625 23.3448ZM25 23.2803L25.5947 23.875L23.875 25.5948L23.2802 25L25 23.2803ZM12.625 15.4698L7.15525 10L10 7.15527L15.4697 12.625L12.625 15.4698ZM12.028 5.12727C13.3164 5.16265 14.5419 5.6922 15.4506 6.60627L16.0191 7.17402C16.933 8.08287 17.4624 9.3083 17.4977 10.5966L16 12.0948L10.5302 6.62502L12.028 5.12727ZM10.597 17.4978C9.30857 17.4624 8.0831 16.9328 7.17438 16.0188L6.60588 15.451C5.69204 14.5422 5.16264 13.3167 5.12725 12.0284L6.625 10.5303L12.0947 16L10.597 17.4978ZM13.5302 15.625L15.625 13.5303L16.2197 14.125L14.125 16.2198L13.5302 15.625ZM16.1875 15.2178L20.7197 19.75L19.75 20.7198L15.2177 16.1875L16.1875 15.2178ZM21.625 19.9053L22.2197 20.5L20.5 22.2198L19.9052 21.625L21.625 19.9053ZM26.875 25.9698C26.875 26.2116 26.7809 26.4389 26.6099 26.6099C26.4389 26.7809 26.2112 26.875 25.9697 26.875H25.5302C25.4113 26.8754 25.2935 26.8521 25.1836 26.8066C25.0737 26.7611 24.974 26.6942 24.8901 26.6099L24.4052 26.125L26.125 24.4053L26.6099 24.8901C26.7809 25.0611 26.875 25.2884 26.875 25.5303V25.9698Z" fill="#8DC540" stroke="#8DC540" stroke-width="0.7"/>
</g>
<defs>
<clipPath id="clip0_4741_63686">
<rect width="24" height="24" fill="white" transform="translate(4 4)"/>
</clipPath>
</defs>
</svg>
