<svg width="32" height="32" viewBox="0 0 32 32" fill="none" xmlns="http://www.w3.org/2000/svg">
<path d="M26 20H22V6C22 5.73478 21.8946 5.48043 21.7071 5.29289C21.5196 5.10536 21.2652 5 21 5H6C5.73478 5 5.48043 5.10536 5.29289 5.29289C5.10536 5.48043 5 5.73478 5 6V22C5 22.6566 5.12933 23.3068 5.3806 23.9134C5.63188 24.52 6.00017 25.0712 6.46447 25.5355C7.40215 26.4732 8.67392 27 10 27H23C24.0609 27 25.0783 26.5786 25.8284 25.8284C26.5786 25.0783 27 24.0609 27 23V21C27 20.7348 26.8946 20.4804 26.7071 20.2929C26.5196 20.1054 26.2652 20 26 20ZM10 25C9.20435 25 8.44129 24.6839 7.87868 24.1213C7.31607 23.5587 7 22.7956 7 22V7H20V20H13C12.7348 20 12.4804 20.1054 12.2929 20.2929C12.1054 20.4804 12 20.7348 12 21V24C12 24.2652 11.8946 24.5196 11.7071 24.7071C11.5196 24.8946 11.2652 25 11 25H10ZM25 23C25 23.5304 24.7893 24.0391 24.4142 24.4142C24.0391 24.7893 23.5304 25 23 25H13.83C13.943 24.6787 14.0005 24.3406 14 24V22H25V23Z" fill="#8DC540"/>
<path d="M10 12H17C17.2652 12 17.5196 11.8946 17.7071 11.7071C17.8946 11.5196 18 11.2652 18 11C18 10.7348 17.8946 10.4804 17.7071 10.2929C17.5196 10.1054 17.2652 10 17 10H10C9.73478 10 9.48043 10.1054 9.29289 10.2929C9.10536 10.4804 9 10.7348 9 11C9 11.2652 9.10536 11.5196 9.29289 11.7071C9.48043 11.8946 9.73478 12 10 12ZM15 15C15 14.7348 14.8946 14.4804 14.7071 14.2929C14.5196 14.1054 14.2652 14 14 14H10C9.73478 14 9.48043 14.1054 9.29289 14.2929C9.10536 14.4804 9 14.7348 9 15C9 15.2652 9.10536 15.5196 9.29289 15.7071C9.48043 15.8946 9.73478 16 10 16H14C14.2652 16 14.5196 15.8946 14.7071 15.7071C14.8946 15.5196 15 15.2652 15 15Z" fill="#8DC540"/>
</svg>
