<svg width="24" height="25" viewBox="0 0 24 25" fill="none" xmlns="http://www.w3.org/2000/svg">
<g clip-path="url(#clip0_4642_41340)">
<path d="M12 0.352539C5.37328 0.352539 0 5.72476 0 12.352C0 18.9793 5.37275 24.3515 12 24.3515C18.6278 24.3515 24 18.9793 24 12.352C24 5.72476 18.6278 0.352539 12 0.352539ZM12 3.94052C13.0527 3.94045 14.0622 4.35855 14.8066 5.10285C15.551 5.84715 15.9693 6.85667 15.9693 7.90933C15.9694 8.962 15.5513 9.97158 14.807 10.716C14.0627 11.4604 13.0532 11.8786 12.0005 11.8787C10.9479 11.8787 9.93828 11.4606 9.19389 10.7163C8.44949 9.97205 8.03126 8.96253 8.03119 7.90986C8.03112 6.8572 8.44922 5.84762 9.19352 5.10322C9.93781 4.35883 10.9473 3.94059 12 3.94052ZM11.9974 21.2142C9.89458 21.2165 7.86035 20.4664 6.2625 19.0994C6.07655 18.9408 5.9272 18.7437 5.82474 18.5217C5.72228 18.2998 5.66914 18.0583 5.66898 17.8138C5.66898 15.5911 7.46798 13.8121 9.69129 13.8121H14.3098C16.5336 13.8121 18.3257 15.5911 18.3257 17.8138C18.3259 18.0582 18.2729 18.2997 18.1706 18.5216C18.0682 18.7435 17.9188 18.9405 17.7328 19.0989C16.135 20.4664 14.1004 21.2168 11.9974 21.2142Z" fill="#8DC540"/>
</g>
<defs>
<clipPath id="clip0_4642_41340">
<rect width="24" height="24" fill="white" transform="translate(0 0.352051)"/>
</clipPath>
</defs>
</svg>
