<svg width="32" height="32" viewBox="0 0 32 32" fill="none" xmlns="http://www.w3.org/2000/svg">
<path d="M21.74 26.75H10.26C7.77 26.75 5.75 24.73 5.75 22.24V15.51C5.75 13.02 7.77 11 10.26 11H21.74C24.23 11 26.25 13.02 26.25 15.51V16.95C26.25 17.36 25.91 17.7 25.5 17.7H23.48C23.13 17.7 22.81 17.83 22.58 18.07L22.57 18.08C22.29 18.35 22.16 18.72 22.19 19.1C22.25 19.76 22.88 20.29 23.6 20.29H25.5C25.91 20.29 26.25 20.63 26.25 21.04V22.23C26.25 24.73 24.23 26.75 21.74 26.75ZM10.26 12.5C8.6 12.5 7.25 13.85 7.25 15.51V22.24C7.25 23.9 8.6 25.25 10.26 25.25H21.74C23.4 25.25 24.75 23.9 24.75 22.24V21.8H23.6C22.09 21.8 20.81 20.68 20.69 19.24C20.61 18.42 20.91 17.61 21.51 17.02C22.03 16.49 22.73 16.2 23.48 16.2H24.75V15.51C24.75 13.85 23.4 12.5 21.74 12.5H10.26Z" fill="#8DC540"/>
<path d="M6.5 17.16C6.09 17.16 5.75 16.82 5.75 16.41V11.8401C5.75 10.3501 6.69 9.00001 8.08 8.47001L16.02 5.47001C16.84 5.16001 17.75 5.27005 18.46 5.77005C19.18 6.27005 19.6 7.08005 19.6 7.95005V11.75C19.6 12.16 19.26 12.5 18.85 12.5C18.44 12.5 18.1 12.16 18.1 11.75V7.95005C18.1 7.57005 17.92 7.22003 17.6 7.00003C17.28 6.78003 16.9 6.73003 16.54 6.87003L8.6 9.87003C7.79 10.18 7.24 10.9701 7.24 11.8401V16.41C7.25 16.83 6.91 17.16 6.5 17.16Z" fill="#8DC540"/>
<path d="M23.6005 21.7992C22.0905 21.7992 20.8105 20.6792 20.6905 19.2392C20.6105 18.4092 20.9105 17.5992 21.5105 17.0092C22.0205 16.4892 22.7205 16.1992 23.4705 16.1992H25.5505C26.5405 16.2292 27.3005 17.0092 27.3005 17.9692V20.0292C27.3005 20.9892 26.5405 21.7692 25.5805 21.7992H23.6005ZM25.5305 17.6992H23.4805C23.1305 17.6992 22.8105 17.8292 22.5805 18.0692C22.2905 18.3492 22.1505 18.7292 22.1905 19.1092C22.2505 19.7692 22.8805 20.2992 23.6005 20.2992H25.5605C25.6905 20.2992 25.8105 20.1792 25.8105 20.0292V17.9692C25.8105 17.8192 25.6905 17.7092 25.5305 17.6992Z" fill="#8DC540"/>
<path d="M18 16.75H11C10.59 16.75 10.25 16.41 10.25 16C10.25 15.59 10.59 15.25 11 15.25H18C18.41 15.25 18.75 15.59 18.75 16C18.75 16.41 18.41 16.75 18 16.75Z" fill="#8DC540"/>
</svg>
