<svg width="24" height="24" viewBox="0 0 24 24" fill="none" xmlns="http://www.w3.org/2000/svg">
<path d="M5.50002 6.54602H16.5C16.5657 6.54607 16.6307 6.53199 16.6914 6.50459C16.7521 6.4772 16.8073 6.43702 16.8537 6.38636C16.9001 6.3357 16.937 6.27555 16.9621 6.20935C16.9872 6.14315 17.0001 6.07219 17 6.00055C17.0001 5.9289 16.9872 5.85795 16.9621 5.79175C16.937 5.72555 16.9001 5.6654 16.8537 5.61474C16.8073 5.56408 16.7521 5.5239 16.6914 5.4965C16.6307 5.46911 16.5657 5.45503 16.5 5.45508H5.50002C5.43434 5.45503 5.3693 5.46911 5.30862 5.4965C5.24793 5.5239 5.19279 5.56408 5.14636 5.61474C5.09992 5.6654 5.06309 5.72555 5.03797 5.79175C5.01286 5.85795 4.99996 5.9289 5 6.00055C4.99997 6.07219 5.01288 6.14314 5.038 6.20933C5.06312 6.27553 5.09995 6.33567 5.14638 6.38633C5.19282 6.43699 5.24795 6.47717 5.30863 6.50457C5.36931 6.53197 5.43434 6.54605 5.50002 6.54602ZM11.5 12.0006H5.50002C5.43434 12.0005 5.3693 12.0146 5.30862 12.042C5.24793 12.0694 5.19279 12.1096 5.14636 12.1602C5.09992 12.2109 5.06309 12.271 5.03797 12.3372C5.01286 12.4034 4.99996 12.4744 5 12.546C4.99996 12.6177 5.01286 12.6886 5.03797 12.7548C5.06309 12.821 5.09992 12.8812 5.14636 12.9319C5.19279 12.9825 5.24793 13.0227 5.30862 13.0501C5.3693 13.0775 5.43434 13.0916 5.50002 13.0915H11.5C11.5657 13.0916 11.6307 13.0775 11.6914 13.0501C11.7521 13.0227 11.8072 12.9825 11.8537 12.9319C11.9001 12.8812 11.9369 12.821 11.9621 12.7548C11.9872 12.6886 12.0001 12.6177 12 12.546C12.0001 12.4744 11.9872 12.4034 11.9621 12.3372C11.9369 12.271 11.9001 12.2109 11.8537 12.1602C11.8072 12.1096 11.7521 12.0694 11.6914 12.042C11.6307 12.0146 11.5657 12.0005 11.5 12.0006Z" fill="#8DC540"/>
<path d="M21.2455 3.00001C21.2189 3.00001 21.1932 3.00728 21.1667 3.00864V3.00001C21.1667 1.897 20.344 1 19.3333 1H2.83335C1.82268 1 1 1.897 1 3.00001V22.5C1.00002 22.5989 1.0269 22.6955 1.07725 22.7777C1.12759 22.8599 1.19914 22.924 1.28286 22.9619C1.33928 22.9878 1.39922 23 1.4583 23C1.57737 23 1.69463 22.9492 1.78237 22.8535L6.23145 18H19.3333C20.344 18 21.1667 17.103 21.1667 16V7.70677L22.4862 6.26757V6.2671C22.8129 5.91067 23 5.41749 23 4.91406C23 3.85843 22.2132 3.00001 21.2455 3.00001ZM20.25 16C20.25 16.5512 19.8391 17 19.3333 17H6.04165C5.98146 17 5.92186 17.0129 5.86625 17.038C5.81065 17.0632 5.76013 17.1 5.71758 17.1464L1.91665 21.293V3.00001C1.91665 2.44876 2.32756 2.00003 2.8333 2.00003H19.3333C19.8391 2.00003 20.25 2.44876 20.25 3.00001V3.34154C20.163 3.40679 20.0798 3.47856 20.0047 3.56054L15.0178 9H6.04165C5.98145 8.99996 5.92183 9.01287 5.8662 9.03798C5.81058 9.06309 5.76003 9.09992 5.71746 9.14636C5.67489 9.1928 5.64113 9.24794 5.61811 9.30862C5.59509 9.36931 5.58327 9.43435 5.5833 9.50002C5.58327 9.5657 5.59509 9.63073 5.61811 9.69142C5.64113 9.7521 5.67489 9.80724 5.71746 9.85368C5.76003 9.90012 5.81058 9.93695 5.8662 9.96206C5.92183 9.98717 5.98145 10.0001 6.04165 10H14.2824L13.8423 12.4019C13.8119 12.566 13.8593 12.7354 13.9676 12.8535C14.0536 12.9473 14.1702 12.9999 14.2917 13C14.3213 13 14.3517 12.9966 14.3812 12.9903L16.672 12.4903C16.7609 12.4711 16.8425 12.4235 16.9065 12.3535L20.25 8.70666V16ZM16.3569 11.5395L14.8762 11.8628L15.1726 10.2456L19.3331 5.70681L20.5185 6.99995L16.3569 11.5395ZM21.838 5.56056L21.1667 6.29298L19.9812 4.99974L20.6528 4.26709C20.8105 4.09656 21.0234 4.00061 21.2454 4C21.7073 4 22.0833 4.41015 22.0833 4.91406C22.0833 5.15429 21.9938 5.39017 21.838 5.56056Z" fill="#8DC540"/>
</svg>
