<svg width="32" height="32" viewBox="0 0 32 32" fill="none" xmlns="http://www.w3.org/2000/svg">
<path fill-rule="evenodd" clip-rule="evenodd" d="M16.4267 28.0006H9.90933C8.34215 27.9982 6.83991 27.3742 5.73212 26.2657C4.62432 25.1572 4.00141 23.6545 4 22.0873V7.24865C4.00141 5.68111 4.62446 4.17812 5.73251 3.06932C6.84055 1.96053 8.34313 1.33646 9.91067 1.33398H16.4107C17.9788 1.33575 19.4822 1.95947 20.591 3.0683C21.6999 4.17713 22.3236 5.68052 22.3253 7.24865V8.49132C22.3253 8.75653 22.22 9.01089 22.0324 9.19842C21.8449 9.38596 21.5906 9.49132 21.3253 9.49132C21.0601 9.49132 20.8058 9.38596 20.6182 9.19842C20.4307 9.01089 20.3253 8.75653 20.3253 8.49132V7.24865C20.3243 6.21074 19.9115 5.21565 19.1776 4.48173C18.4437 3.74782 17.4486 3.33504 16.4107 3.33398H9.91067C8.87323 3.3354 7.87876 3.74841 7.14556 4.48237C6.41235 5.21632 6.00035 6.21122 6 7.24865V22.0873C6.00071 23.1245 6.41286 24.1191 7.14603 24.8527C7.87919 25.5864 8.87347 25.9992 9.91067 26.0007H16.4253C17.459 25.9992 18.45 25.5881 19.181 24.8573C19.9121 24.1265 20.3236 23.1357 20.3253 22.102V20.8447C20.3253 20.5794 20.4307 20.3251 20.6182 20.1375C20.8058 19.95 21.0601 19.8447 21.3253 19.8447C21.5906 19.8447 21.8449 19.95 22.0324 20.1375C22.22 20.3251 22.3253 20.5794 22.3253 20.8447V22.102C22.3232 23.6658 21.7011 25.1649 20.5953 26.2706C19.4896 27.3764 17.9904 27.9985 16.4267 28.0006Z" fill="#8DC540"/>
<path fill-rule="evenodd" clip-rule="evenodd" d="M30.3828 15.668H14.3281C14.0629 15.668 13.8086 15.5626 13.621 15.3751C13.4335 15.1875 13.3281 14.9332 13.3281 14.668C13.3281 14.4028 13.4335 14.1484 13.621 13.9609C13.8086 13.7733 14.0629 13.668 14.3281 13.668H30.3828C30.648 13.668 30.9024 13.7733 31.0899 13.9609C31.2774 14.1484 31.3828 14.4028 31.3828 14.668C31.3828 14.9332 31.2774 15.1875 31.0899 15.3751C30.9024 15.5626 30.648 15.668 30.3828 15.668Z" fill="#8DC540"/>
<path fill-rule="evenodd" clip-rule="evenodd" d="M26.4792 19.5553C26.2814 19.5551 26.0881 19.4963 25.9237 19.3862C25.7594 19.2762 25.6313 19.1198 25.5558 18.937C25.4803 18.7542 25.4607 18.553 25.4996 18.3591C25.5384 18.1651 25.6338 17.987 25.7739 17.8473L28.9632 14.6673L25.7726 11.4886C25.6796 11.396 25.6058 11.286 25.5553 11.1648C25.5049 11.0437 25.4788 10.9138 25.4785 10.7825C25.4783 10.6513 25.5039 10.5213 25.5539 10.3999C25.6039 10.2786 25.6773 10.1683 25.7699 10.0753C25.8625 9.98232 25.9726 9.9085 26.0937 9.85805C26.2149 9.80759 26.3448 9.7815 26.476 9.78125C26.6073 9.781 26.7373 9.80661 26.8586 9.8566C26.9799 9.9066 27.0903 9.98 27.1832 10.0726L31.0872 13.9593C31.181 14.0518 31.2555 14.1621 31.3063 14.2836C31.3571 14.4051 31.3833 14.5356 31.3833 14.6673C31.3833 14.799 31.3571 14.9295 31.3063 15.051C31.2555 15.1725 31.181 15.2828 31.0872 15.3753L27.1832 19.2633C27.0906 19.356 26.9807 19.4294 26.8596 19.4796C26.7386 19.5297 26.6089 19.5554 26.4779 19.5553H26.4792Z" fill="#8DC540"/>
</svg>
