<svg width="32" height="32" viewBox="0 0 32 32" fill="none" xmlns="http://www.w3.org/2000/svg">
<path d="M22 14.75C21.59 14.75 21.25 14.41 21.25 14V12C21.25 8.85 20.36 6.75 16 6.75C11.64 6.75 10.75 8.85 10.75 12V14C10.75 14.41 10.41 14.75 10 14.75C9.59 14.75 9.25 14.41 9.25 14V12C9.25 9.1 9.95 5.25 16 5.25C22.05 5.25 22.75 9.1 22.75 12V14C22.75 14.41 22.41 14.75 22 14.75Z" fill="#8DC540"/>
<path d="M16 23.25C14.21 23.25 12.75 21.79 12.75 20C12.75 18.21 14.21 16.75 16 16.75C17.79 16.75 19.25 18.21 19.25 20C19.25 21.79 17.79 23.25 16 23.25ZM16 18.25C15.04 18.25 14.25 19.04 14.25 20C14.25 20.96 15.04 21.75 16 21.75C16.96 21.75 17.75 20.96 17.75 20C17.75 19.04 16.96 18.25 16 18.25Z" fill="#8DC540"/>
<path d="M21 26.75H11C6.59 26.75 5.25 25.41 5.25 21V19C5.25 14.59 6.59 13.25 11 13.25H21C25.41 13.25 26.75 14.59 26.75 19V21C26.75 25.41 25.41 26.75 21 26.75ZM11 14.75C7.42 14.75 6.75 15.43 6.75 19V21C6.75 24.57 7.42 25.25 11 25.25H21C24.58 25.25 25.25 24.57 25.25 21V19C25.25 15.43 24.58 14.75 21 14.75H11Z" fill="#8DC540"/>
</svg>
