<svg width="32" height="32" viewBox="0 0 32 32" fill="none" xmlns="http://www.w3.org/2000/svg">
<path d="M20 26.75H12C6.25 26.75 6.25 23.7 6.25 21V20C6.25 17.77 6.25 15.25 11 15.25C12.19 15.25 12.63 15.54 13.25 16C13.28 16.03 13.32 16.05 13.35 16.09L14.37 17.17C15.23 18.08 16.79 18.08 17.65 17.17L18.67 16.09C18.7 16.06 18.73 16.03 18.77 16C19.39 15.53 19.83 15.25 21.02 15.25C25.77 15.25 25.77 17.77 25.77 20V21C25.75 24.82 23.82 26.75 20 26.75ZM11 16.75C7.75 16.75 7.75 17.77 7.75 20V21C7.75 23.74 7.75 25.25 12 25.25H20C22.98 25.25 24.25 23.98 24.25 21V20C24.25 17.77 24.25 16.75 21 16.75C20.28 16.75 20.13 16.84 19.7 17.16L18.73 18.19C18.01 18.95 17.04 19.37 16 19.37C14.96 19.37 13.99 18.95 13.27 18.19L12.3 17.16C11.87 16.84 11.72 16.75 11 16.75Z" fill="#8DC540"/>
<path d="M23 16.75C22.59 16.75 22.25 16.41 22.25 16V10C22.25 7.77 22.25 6.75 19 6.75H13C9.75 6.75 9.75 7.77 9.75 10V16C9.75 16.41 9.41 16.75 9 16.75C8.59 16.75 8.25 16.41 8.25 16V10C8.25 7.77 8.25 5.25 13 5.25H19C23.75 5.25 23.75 7.77 23.75 10V16C23.75 16.41 23.41 16.75 23 16.75Z" fill="#8DC540"/>
<path d="M17.8808 13.9805H14.5508C14.1408 13.9805 13.8008 13.6405 13.8008 13.2305C13.8008 12.8205 14.1408 12.4805 14.5508 12.4805H17.8808C18.2908 12.4805 18.6308 12.8205 18.6308 13.2305C18.6308 13.6405 18.3008 13.9805 17.8808 13.9805Z" fill="#8DC540"/>
<path d="M18.7207 10.9805H13.7207C13.3107 10.9805 12.9707 10.6405 12.9707 10.2305C12.9707 9.82047 13.3107 9.48047 13.7207 9.48047H18.7207C19.1307 9.48047 19.4707 9.82047 19.4707 10.2305C19.4707 10.6405 19.1407 10.9805 18.7207 10.9805Z" fill="#8DC540"/>
</svg>
