<svg width="32" height="32" viewBox="0 0 32 32" fill="none" xmlns="http://www.w3.org/2000/svg">
<g clip-path="url(#clip0_4741_69749)">
<path d="M26.9088 16.1007V12.7275C26.9088 11.5837 26.0216 10.6535 24.9006 10.5633L21.7681 5.09179C21.4778 4.58575 21.009 4.22407 20.4481 4.07389C19.8899 3.92473 19.3061 4.00306 18.8064 4.29387L8.06783 10.5457H6.1818C4.97853 10.5457 4 11.5242 4 12.7275V25.8182C4 27.0215 4.97848 28 6.1818 28H24.727C25.9302 28 26.9088 27.0215 26.9088 25.8182V22.445C27.5423 22.2191 27.9996 21.6194 27.9996 20.9092V17.6365C27.9996 16.9263 27.5423 16.3266 26.9088 16.1007ZM23.633 10.5457H18.8789L22.4445 8.4698L23.633 10.5457ZM21.9025 7.52313L16.7108 10.5457H14.5573L21.3641 6.5827L21.9025 7.52313ZM19.3556 5.23666C19.6022 5.0923 19.8904 5.05395 20.1658 5.12748C20.4444 5.20204 20.6766 5.38209 20.821 5.63403L20.8221 5.63603L12.3893 10.5457H10.236L19.3556 5.23666ZM25.8178 25.8182C25.8178 26.4196 25.3283 26.9091 24.727 26.9091H6.1818C5.58045 26.9091 5.09093 26.4196 5.09093 25.8182V12.7275C5.09093 12.1261 5.58045 11.6366 6.1818 11.6366H24.727C25.3283 11.6366 25.8178 12.1261 25.8178 12.7275V16.0002H22.5452C20.7405 16.0002 19.2725 17.4682 19.2725 19.2728C19.2725 21.0775 20.7405 22.5455 22.5452 22.5455H25.8178V25.8182ZM26.9088 20.9092C26.9088 21.2101 26.6643 21.4546 26.3633 21.4546H22.5452C21.3419 21.4546 20.3634 20.4762 20.3634 19.2728C20.3634 18.0696 21.3418 17.091 22.5452 17.091H26.3633C26.6642 17.091 26.9088 17.3355 26.9088 17.6365V20.9092Z" fill="#8DC540" stroke="#8DC540" stroke-width="0.2"/>
<path d="M22.546 18.1816C21.9446 18.1816 21.4551 18.6712 21.4551 19.2725C21.4551 19.8739 21.9446 20.3634 22.546 20.3634C23.1473 20.3634 23.6368 19.8739 23.6368 19.2725C23.6369 18.6712 23.1474 18.1816 22.546 18.1816Z" fill="#8DC540"/>
</g>
<defs>
<clipPath id="clip0_4741_69749">
<rect width="24" height="24" fill="white" transform="translate(4 4)"/>
</clipPath>
</defs>
</svg>
