<svg width="96" height="76" viewBox="0 0 96 76" fill="none" xmlns="http://www.w3.org/2000/svg">
<path d="M3 33.0005V57.0019C3 62.6025 3 65.4014 4.08993 67.5405C5.04867 69.4222 6.57736 70.9536 8.45898 71.9123C10.596 73.0012 13.395 73.0012 18.9846 73.0012H77.0155C82.605 73.0012 85.4 73.0012 87.537 71.9123C89.4186 70.9536 90.9524 69.4222 91.9111 67.5405C93 65.4035 93 62.6085 93 57.0188V33.0005M3 33.0005V23.0003M3 33.0005H93M3 23.0003V19.0013C3 13.4006 3 10.5982 4.08993 8.45908C5.04867 6.57743 6.57736 5.0487 8.45898 4.08995C10.5981 3 13.4005 3 19.001 3H77.001C82.6015 3 85.3979 3 87.537 4.08995C89.4186 5.0487 90.9524 6.57743 91.9111 8.45908C93 10.5961 93 13.3952 93 18.9848V23.0003M3 23.0003H93M23 53.0009H43M93 33.0005V23.0003" stroke="#ABADB1" stroke-width="5.45459" stroke-linecap="round" stroke-linejoin="round"/>
</svg>
