<svg width="151" height="151" viewBox="0 0 151 151" fill="none" xmlns="http://www.w3.org/2000/svg">
<g clip-path="url(#clip0_4741_65188)">
<path d="M35.1845 138.341C35.3472 141.758 36.8212 144.98 39.2997 147.338C41.7782 149.696 45.0705 151.008 48.4915 151H102.51C105.931 151.008 109.223 149.697 111.702 147.339C114.181 144.981 115.654 141.758 115.817 138.341L123.598 48.8529H27.4036L35.1845 138.341ZM88.8244 71.0588H97.7068V119.912H88.8244V71.0588ZM71.0597 71.0588H79.9421V119.912H71.0597V71.0588ZM53.295 71.0588H62.1774V119.912H53.295V71.0588ZM97.7068 22.2059V13.3235C97.7068 5.97723 91.7302 0 84.3833 0H66.6186C59.2723 0 53.295 5.97723 53.295 13.3235V22.2059H17.7656V39.9706H133.236V22.2059H97.7068ZM62.1774 22.2059V13.3235C62.1774 10.8747 64.17 8.88235 66.6186 8.88235H84.3833C86.8324 8.88235 88.8244 10.8747 88.8244 13.3235V22.2059H62.1774Z" fill="#F83B12"/>
</g>
<defs>
<clipPath id="clip0_4741_65188">
<rect width="151" height="151" fill="white"/>
</clipPath>
</defs>
</svg>
