<svg width="151" height="151" viewBox="0 0 151 151" fill="none" xmlns="http://www.w3.org/2000/svg">
<path d="M151 75.4995C151 33.8669 117.133 0 75.5 0C33.8671 0 0 33.8669 0 75.4995C0 117.132 33.8671 150.999 75.5 150.999C117.133 151.215 151 117.132 151 75.4995ZM81.9714 80.2452C81.9714 83.9123 78.9514 86.7166 75.5 86.7166C71.8329 86.7166 69.0286 83.9123 69.0286 80.2452V47.2411C69.0286 43.574 71.8329 40.7697 75.5 40.7697C78.9514 40.7697 81.9714 43.574 81.9714 47.2411V80.2452ZM81.9714 103.974C81.9714 105.699 81.3243 107.209 80.03 108.504C78.7357 109.798 77.2257 110.445 75.5 110.445C73.7743 110.445 72.0486 109.798 70.97 108.504C69.6757 107.209 69.0286 105.699 69.0286 103.974C69.0286 103.542 69.0286 103.111 69.2443 102.679C69.2443 102.248 69.46 101.816 69.6757 101.385C69.8914 100.954 70.1071 100.738 70.3229 100.306C70.5386 99.875 70.7543 99.6593 71.1857 99.2279C73.5586 96.8551 77.8729 96.8551 80.2457 99.2279C80.4614 99.4436 80.8929 99.875 81.1086 100.306C81.3243 100.738 81.54 100.954 81.7557 101.385C81.9714 101.816 81.9714 102.248 82.1871 102.679C81.9714 103.111 81.9714 103.542 81.9714 103.974Z" fill="#F83B12"/>
</svg>
