<svg width="50" height="81" viewBox="0 0 50 81" fill="none" xmlns="http://www.w3.org/2000/svg">
<path d="M25.001 14.5889C22.709 14.5889 20.4685 15.2685 18.5629 16.5419C16.6572 17.8152 15.1719 19.625 14.2948 21.7425C13.4177 23.86 13.1882 26.19 13.6353 28.4379C14.0825 30.6858 15.1862 32.7507 16.8068 34.3713C18.4275 35.992 20.4923 37.0956 22.7402 37.5428C24.9881 37.9899 27.3181 37.7604 29.4356 36.8833C31.5531 36.0063 33.3629 34.521 34.6363 32.6153C35.9096 30.7096 36.5892 28.4691 36.5892 26.1772C36.5858 23.1048 35.3637 20.1593 33.1913 17.9868C31.0188 15.8144 28.0733 14.5924 25.001 14.5889ZM25.001 34.0156C23.4507 34.0156 21.9352 33.5559 20.6462 32.6946C19.3572 31.8333 18.3526 30.6092 17.7593 29.1769C17.1661 27.7446 17.0108 26.1686 17.3133 24.6481C17.6157 23.1277 18.3623 21.731 19.4585 20.6348C20.5547 19.5386 21.9513 18.7921 23.4718 18.4897C24.9923 18.1872 26.5683 18.3424 28.0005 18.9357C29.4328 19.529 30.657 20.5336 31.5182 21.8226C32.3795 23.1116 32.8392 24.6271 32.8392 26.1773C32.8369 28.2554 32.0103 30.2478 30.5409 31.7172C29.0714 33.1867 27.0791 34.0132 25.001 34.0156ZM43.0121 8.16607C38.2262 3.40624 31.7508 0.734375 25.001 0.734375C18.2511 0.734375 11.7757 3.40624 6.98986 8.16607C2.35189 12.8044 0.0708005 18.8325 0.393301 25.599C0.672519 31.4569 2.86471 37.7739 6.73283 43.8673L23.418 70.1511C23.5872 70.4177 23.8211 70.6372 24.0978 70.7893C24.3745 70.9414 24.6852 71.0212 25.001 71.0212C25.3167 71.0212 25.6274 70.9414 25.9041 70.7893C26.1809 70.6372 26.4147 70.4177 26.5839 70.1511L43.2691 43.8673C47.1372 37.7736 49.3294 31.4569 49.6086 25.599C49.9311 18.8325 47.65 12.8044 43.0121 8.16607ZM40.1031 41.8575L25.001 65.6475L9.89877 41.8575C2.28939 29.8701 2.19283 18.2665 9.64158 10.8178C13.7183 6.75026 19.2421 4.46592 25.001 4.46592C30.7598 4.46592 36.2836 6.75026 40.3603 10.8178C47.8091 18.2665 47.7128 29.8701 40.1031 41.8575ZM4.81471 69.1461C4.81471 70.8995 6.81174 72.8256 10.1569 74.2984C14.091 76.0312 19.3627 76.9844 25.001 76.9844C30.6392 76.9844 35.911 76.0304 39.8447 74.2984C43.1899 72.8256 45.1869 70.8995 45.1869 69.1461C45.1869 66.8581 41.891 64.4009 36.7902 62.8858C36.3162 62.7419 35.9184 62.4163 35.6837 61.9801C35.4489 61.5439 35.3964 61.0325 35.5374 60.5577C35.6785 60.0828 36.0017 59.6831 36.4365 59.4458C36.8713 59.2085 37.3823 59.1528 37.858 59.2911C44.8988 61.3823 48.9369 64.9745 48.9369 69.1461C48.9369 72.5292 46.2445 75.5779 41.3558 77.7303C36.9564 79.6676 31.1481 80.7344 25.001 80.7344C18.8538 80.7344 13.0455 79.6676 8.6458 77.7303C3.75705 75.5779 1.06471 72.5292 1.06471 69.1461C1.06471 64.9742 5.10283 61.3823 12.1428 59.2911C12.6185 59.1528 13.1295 59.2085 13.5643 59.4458C13.9991 59.6831 14.3224 60.0828 14.4634 60.5577C14.6045 61.0325 14.5519 61.5439 14.3172 61.9801C14.0824 62.4163 13.6846 62.7419 13.2106 62.8858C8.11033 64.4009 4.81471 66.8581 4.81471 69.1461Z" fill="#999AA0"/>
</svg>
