<svg width="30" height="40" viewBox="0 0 30 40" fill="none" xmlns="http://www.w3.org/2000/svg">
<path d="M29.7559 8.31188L21.4225 -0.0214844C21.2663 -0.177734 21.0547 -0.265625 20.8333 -0.265625H3.33328C1.49492 -0.265625 0 1.2293 0 3.06773V36.4011C0 38.2395 1.49492 39.7344 3.33336 39.7344H26.6667C28.5051 39.7344 30 38.2395 30 36.401V8.90102C30 8.67969 29.9121 8.46813 29.7559 8.31188ZM21.6666 2.57945L27.1549 8.06773H23.3333C22.4145 8.06773 21.6666 7.31984 21.6666 6.40109V2.57945ZM28.3334 36.401C28.3334 37.3198 27.5855 38.0677 26.6667 38.0677H3.33336C2.41461 38.0677 1.66672 37.3198 1.66672 36.401V3.06773C1.66672 2.14898 2.41461 1.40109 3.33336 1.40109H20V6.40109C20 8.23945 21.4949 9.73438 23.3334 9.73438H28.3334V36.401Z" fill="#D9363E"/>
<path d="M19.2488 24.1968C18.4773 23.5897 17.7441 22.9655 17.2559 22.4773C16.6211 21.8425 16.0555 21.2273 15.564 20.6413C16.3306 18.2723 16.6667 17.0509 16.6667 16.3998C16.6667 13.6337 15.6673 13.0664 14.1667 13.0664C13.0266 13.0664 11.6667 13.6588 11.6667 16.4795C11.6667 17.723 12.3479 19.2327 13.698 20.9872C13.3676 21.9955 12.9794 23.1584 12.5432 24.4695C12.3332 25.0985 12.1054 25.6812 11.8645 26.2199C11.6723 26.3048 11.4821 26.3941 11.294 26.4877C10.6316 26.8189 10.0025 27.1167 9.41898 27.3934C6.75781 28.6532 5 29.4866 5 31.132C5 32.3267 6.29805 33.0664 7.5 33.0664C9.04945 33.0664 11.3891 30.9969 13.0981 27.5105C14.8722 26.8107 17.0777 26.2923 18.8184 25.9676C20.2132 27.0402 21.7537 28.0664 22.5 28.0664C24.5662 28.0664 25 26.8717 25 25.8699C25 23.8997 22.749 23.8997 21.6666 23.8997C21.3305 23.8998 20.4289 23.9991 19.2488 24.1968ZM7.5 31.3998C7.02391 31.3998 6.70164 31.1752 6.66664 31.132C6.66664 30.5412 8.42852 29.7062 10.1327 28.899C10.2409 28.8477 10.3508 28.7964 10.4623 28.7435C9.21063 30.5584 7.97281 31.3998 7.5 31.3998ZM13.3334 16.4795C13.3334 14.7331 13.8754 14.7331 14.1667 14.7331C14.7559 14.7331 15.0001 14.7331 15.0001 16.3998C15.0001 16.7513 14.7657 17.6302 14.3368 19.0023C13.6824 17.9948 13.3334 17.1314 13.3334 16.4795ZM13.9722 25.4362C14.0246 25.2905 14.0751 25.144 14.1236 24.9968C14.4328 24.0691 14.7112 23.2357 14.9594 22.4854C15.3052 22.8663 15.678 23.2561 16.0776 23.6556C16.2338 23.8119 16.6212 24.1634 17.1372 24.6037C16.11 24.8275 15.0171 25.105 13.9722 25.4362ZM23.3334 25.87C23.3334 26.2444 23.3334 26.3998 22.5602 26.4047C22.3332 26.3559 21.8083 26.0466 21.1605 25.6055C21.3956 25.5795 21.569 25.5665 21.6666 25.5665C22.898 25.5665 23.2471 25.6869 23.3334 25.87Z" fill="#D9363E"/>
</svg>
