<svg width="152" height="151" viewBox="0 0 152 151" fill="none" xmlns="http://www.w3.org/2000/svg">
<path d="M110.226 96.7035C109.031 96.7035 107.836 96.263 106.892 95.3193C105.067 93.4947 105.067 90.4747 106.892 88.6501L119.664 75.878L106.892 63.106C105.067 61.2814 105.067 58.2614 106.892 56.4368C108.716 54.6122 111.736 54.6122 113.561 56.4368L129.668 72.5435C131.492 74.368 131.492 77.388 129.668 79.2126L113.561 95.3193C112.617 96.263 111.422 96.7035 110.226 96.7035Z" fill="#FF4D4F"/>
<path d="M125.892 80.5957H61.9062C59.3267 80.5957 57.1875 78.4565 57.1875 75.877C57.1875 73.2974 59.3267 71.1582 61.9062 71.1582H125.892C128.472 71.1582 130.611 73.2974 130.611 75.877C130.611 78.4565 128.472 80.5957 125.892 80.5957Z" fill="#FF4D4F"/>
<path d="M74.4896 130.551C42.0875 130.551 19.4375 107.901 19.4375 75.4993C19.4375 43.0973 42.0875 20.4473 74.4896 20.4473C77.0692 20.4473 79.2083 22.5864 79.2083 25.166C79.2083 27.7456 77.0692 29.8848 74.4896 29.8848C47.6242 29.8848 28.875 48.6339 28.875 75.4993C28.875 102.365 47.6242 121.114 74.4896 121.114C77.0692 121.114 79.2083 123.253 79.2083 125.833C79.2083 128.412 77.0692 130.551 74.4896 130.551Z" fill="#FF4D4F"/>
</svg>
