<svg width="99" height="77" viewBox="0 0 99 77" fill="none" xmlns="http://www.w3.org/2000/svg">
<path d="M28.3801 43.9395C28.718 44.2775 29.1404 44.4295 29.5797 44.4295C30.019 44.4295 30.4415 44.2606 30.7794 43.9395C31.4384 43.2806 31.4384 42.2161 30.7794 41.5571L27.4001 38.1778L30.7794 34.7985C31.4384 34.1395 31.4384 33.0751 30.7794 32.4161C30.1204 31.7571 29.0559 31.7571 28.397 32.4161L25.0177 35.7954L21.6384 32.4161C20.9794 31.7571 19.9149 31.7571 19.2559 32.4161C18.597 33.0751 18.597 34.1395 19.2559 34.7985L22.6353 38.1778L19.2559 41.5571C18.597 42.2161 18.597 43.2806 19.2559 43.9395C19.5939 44.2775 20.0163 44.4295 20.4556 44.4295C20.8949 44.4295 21.3173 44.2606 21.6553 43.9395L25.0346 40.5602L28.4139 43.9395H28.3801Z" fill="#ABADB1"/>
<path d="M59.4864 32.4005C58.8275 31.7415 57.763 31.7415 57.104 32.4005L53.7247 35.7798L50.3454 32.4005C49.6864 31.7415 48.6219 31.7415 47.963 32.4005C47.304 33.0594 47.304 34.1239 47.963 34.7829L51.3423 38.1622L47.963 41.5415C47.304 42.2005 47.304 43.265 47.963 43.9239C48.3009 44.2619 48.7233 44.4139 49.1626 44.4139C49.6019 44.4139 50.0244 44.245 50.3623 43.9239L53.7416 40.5446L57.1209 43.9239C57.4588 44.2619 57.8813 44.4139 58.3206 44.4139C58.7599 44.4139 59.1823 44.245 59.5202 43.9239C60.1792 43.265 60.1792 42.2005 59.5202 41.5415L56.1409 38.1622L59.5202 34.7829C60.1792 34.1239 60.1792 33.0594 59.5202 32.4005H59.4864Z" fill="#ABADB1"/>
<path d="M86.6725 39.3633C83.8846 39.3633 81.6035 41.6443 81.6035 44.4322C81.6035 47.2202 83.8846 49.5012 86.6725 49.5012C89.4604 49.5012 91.7414 47.2202 91.7414 44.4322C91.7414 41.6443 89.4604 39.3633 86.6725 39.3633ZM86.6725 46.1219C85.7432 46.1219 84.9828 45.3616 84.9828 44.4322C84.9828 43.5029 85.7432 42.7426 86.6725 42.7426C87.6018 42.7426 88.3621 43.5029 88.3621 44.4322C88.3621 45.3616 87.6018 46.1219 86.6725 46.1219Z" fill="#ABADB1"/>
<path d="M28.2103 56.5977C27.4669 57.1553 27.2979 58.2198 27.8555 58.9632C28.4131 59.7067 29.4776 59.8757 30.221 59.3181C36.3713 54.756 42.3358 54.756 48.4862 59.3181C48.7903 59.5377 49.1451 59.656 49.5 59.656C50.0238 59.656 50.5307 59.4195 50.8517 58.9801C51.4093 58.2367 51.2572 57.1722 50.4969 56.6146C43.0962 51.1232 35.5941 51.1232 28.2103 56.6146V56.5977Z" fill="#ABADB1"/>
<path d="M13.0881 10.6371H73.6622C74.5915 10.6371 75.3519 9.87678 75.3519 8.94747C75.3519 8.01816 74.5915 7.25781 73.6622 7.25781H13.0881C12.1588 7.25781 11.3984 8.01816 11.3984 8.94747C11.3984 9.87678 12.1588 10.6371 13.0881 10.6371Z" fill="#ABADB1"/>
<path d="M93.431 30.9138V19.0862C93.431 16.2983 91.15 14.0172 88.3621 14.0172H84.9828V5.56897C84.9828 2.78103 82.7017 0.5 79.9138 0.5H8.94828C4.28483 0.5 0.5 4.28483 0.5 8.94828V68.0862C0.5 72.7497 4.28483 76.5345 8.94828 76.5345H88.3621C91.15 76.5345 93.431 74.2534 93.431 71.4655V57.9483C96.219 57.9483 98.5 55.6672 98.5 52.8793V35.9828C98.5 33.1948 96.219 30.9138 93.431 30.9138ZM8.94828 3.87931H79.9138C80.8431 3.87931 81.6034 4.63966 81.6034 5.56897V14.0172H8.94828C6.16035 14.0172 3.87931 11.7362 3.87931 8.94828C3.87931 6.16035 6.16035 3.87931 8.94828 3.87931ZM90.0517 71.4655C90.0517 72.3948 89.2914 73.1552 88.3621 73.1552H8.94828C6.16035 73.1552 3.87931 70.8741 3.87931 68.0862V15.6562C5.29862 16.7207 7.03897 17.3966 8.94828 17.3966H88.3621C89.2914 17.3966 90.0517 18.1569 90.0517 19.0862V30.9138H83.2931C78.6297 30.9138 74.8448 34.6986 74.8448 39.3621V49.5C74.8448 54.1634 78.6297 57.9483 83.2931 57.9483H90.0517V71.4655ZM95.1207 52.8793C95.1207 53.8086 94.3603 54.569 93.431 54.569H83.2931C80.5052 54.569 78.2241 52.2879 78.2241 49.5V39.3621C78.2241 36.5741 80.5052 34.2931 83.2931 34.2931H93.431C94.3603 34.2931 95.1207 35.0534 95.1207 35.9828V52.8793Z" fill="#ABADB1"/>
</svg>
