<svg width="37" height="37" viewBox="0 0 37 37" fill="none" xmlns="http://www.w3.org/2000/svg">
<path fill-rule="evenodd" clip-rule="evenodd" d="M18.207 36.707C8.162 36.707 0 28.544 0 18.5C0 8.45603 8.163 0.29303 18.207 0.29303C28.251 0.29303 36.414 8.45603 36.414 18.5C36.414 28.544 28.251 36.707 18.207 36.707ZM18.2071 36.002C27.8521 36.002 35.7081 28.146 35.7081 18.501C35.7081 8.85595 27.8521 0.999954 18.2071 0.999954C8.56205 0.999954 0.706055 8.85595 0.706055 18.501C0.706055 28.146 8.56205 36.002 18.2071 36.002ZM17.976 26.9067C18.049 26.9797 18.137 27.0117 18.225 27.0117H18.226C18.314 27.0117 18.402 26.9797 18.475 26.9067L23.756 21.6257C23.903 21.4797 23.903 21.2767 23.756 21.1297C23.68 21.0547 23.601 21.0247 23.504 21.0247C23.407 21.0247 23.324 21.0557 23.25 21.1297L18.573 25.8067V10.3447C18.573 10.1387 18.421 9.98772 18.216 9.98772C18.011 9.98772 17.857 10.1407 17.857 10.3447V25.8157L13.352 21.3087H13.35L13.178 21.1367C13.035 20.9937 12.814 21.0057 12.704 21.1207L12.695 21.1297C12.548 21.2757 12.548 21.4787 12.695 21.6257L17.976 26.9067Z" fill="#FF6961"/>
</svg>
