<svg width="37" height="37" viewBox="0 0 37 37" fill="none" xmlns="http://www.w3.org/2000/svg">
<path fill-rule="evenodd" clip-rule="evenodd" d="M18.2071 0.29297C28.2521 0.292969 36.4141 8.45597 36.4141 18.5C36.4141 28.544 28.2511 36.707 18.2071 36.707C8.16307 36.707 6.35049e-05 28.544 6.26269e-05 18.5C6.17488e-05 8.45597 8.16306 0.292971 18.2071 0.29297ZM18.207 0.998048C8.56201 0.998049 0.70601 8.85405 0.706011 18.499C0.706011 28.144 8.56201 36 18.207 36C27.852 36 35.708 28.144 35.708 18.499C35.708 8.85405 27.852 0.998048 18.207 0.998048ZM18.4381 10.0933C18.3651 10.0203 18.2771 9.98828 18.1891 9.98828L18.1881 9.98828C18.1001 9.98828 18.0121 10.0203 17.9391 10.0933L12.6581 15.3743C12.5111 15.5203 12.5111 15.7233 12.6581 15.8703C12.7341 15.9453 12.8131 15.9753 12.9101 15.9753C13.0071 15.9753 13.0901 15.9443 13.1641 15.8703L17.8411 11.1933L17.8411 26.6553C17.8411 26.8613 17.9931 27.0123 18.1981 27.0123C18.4031 27.0123 18.5571 26.8593 18.5571 26.6553L18.5571 11.1843L23.0621 15.6913L23.0641 15.6913L23.2361 15.8633C23.3791 16.0063 23.6001 15.9943 23.7101 15.8793L23.7191 15.8703C23.8661 15.7243 23.8661 15.5213 23.7191 15.3743L18.4381 10.0933Z" fill="#8DC540"/>
</svg>
