<svg width="152" height="151" viewBox="0 0 152 151" fill="none" xmlns="http://www.w3.org/2000/svg">
<path d="M93.3114 28.6371C96.2597 25.6887 101.04 25.6887 103.989 28.6371L128.202 52.8508L103.989 77.0644C101.04 80.0127 96.2597 80.0127 93.3114 77.0644C90.3631 74.1161 90.3631 69.3355 93.3114 66.3872L99.2978 60.4008H45.8C41.6303 60.4008 38.25 57.0205 38.25 52.8508C38.25 48.6811 41.6303 45.3008 45.8 45.3008H99.2978L93.3114 39.3145C90.3631 36.366 90.3631 31.5856 93.3114 28.6371Z" fill="#8DC540"/>
<path d="M51.7874 126.138C54.7359 129.086 59.5163 129.086 62.4647 126.138C65.413 123.189 65.413 118.409 62.4647 115.46L52.7034 105.699H106.201C110.371 105.699 113.751 102.319 113.751 98.149C113.751 93.9792 110.371 90.599 106.201 90.599H52.7034L62.4647 80.8376C65.413 77.8894 65.413 73.1087 62.4647 70.1604C59.5163 67.2121 54.7359 67.2121 51.7874 70.1604L23.7988 98.149L51.7874 126.138Z" fill="#8DC540"/>
<path fill-rule="evenodd" clip-rule="evenodd" d="M0.5 15.1C0.5 6.7605 7.2605 0 15.6 0H136.4C144.74 0 151.5 6.7605 151.5 15.1V135.9C151.5 144.24 144.74 151 136.4 151H15.6C7.2605 151 0.5 144.24 0.5 135.9V15.1ZM136.4 15.1H15.6V135.9H136.4V15.1Z" fill="#8DC540"/>
</svg>
