<svg width="235" height="226" viewBox="0 0 235 226" fill="none" xmlns="http://www.w3.org/2000/svg">
<path d="M167.701 184.657C201.078 158.786 207.162 110.756 181.291 77.3793C155.42 44.0027 107.39 37.9182 74.0138 63.7892C40.6372 89.6602 34.5527 137.69 60.4237 171.067C86.2947 204.443 134.324 210.528 167.701 184.657Z" stroke="#8DC540" stroke-width="9.7574" stroke-miterlimit="10" stroke-linecap="round" stroke-linejoin="round"/>
<path d="M153.206 165.954C176.254 148.089 180.455 114.923 162.59 91.875C144.725 68.8271 111.559 64.6255 88.5112 82.4905C65.4633 100.355 61.2617 133.522 79.1267 156.57C96.9916 179.618 130.158 183.819 153.206 165.954Z" stroke="#1D202D" stroke-width="9.7574" stroke-miterlimit="10" stroke-linecap="round" stroke-linejoin="round"/>
<path d="M144.467 141.302C153.898 128.262 150.972 110.046 137.932 100.616C124.892 91.1851 106.676 94.111 97.2455 107.151C87.8149 120.191 90.7408 138.407 103.781 147.837C116.821 157.268 135.037 154.342 144.467 141.302Z" stroke="#1D202D" stroke-width="9.7574" stroke-miterlimit="10" stroke-linecap="round" stroke-linejoin="round"/>
<path d="M193.883 67.5695L122.266 123.08M245.161 49.0634L221.508 46.0666L224.442 22.9078L196.773 44.3543L193.839 67.5127L217.492 70.5095L245.161 49.0634Z" stroke="#8DC540" stroke-width="9.7574" stroke-miterlimit="10" stroke-linecap="round" stroke-linejoin="round"/>
</svg>
