<svg width="152" height="151" viewBox="0 0 152 151" fill="none" xmlns="http://www.w3.org/2000/svg">
<g clip-path="url(#clip0_4939_56695)">
<mask id="mask0_4939_56695" style="mask-type:luminance" maskUnits="userSpaceOnUse" x="0" y="0" width="152" height="151">
<path fill-rule="evenodd" clip-rule="evenodd" d="M0.5 0H151.5V151H0.5V0Z" fill="white"/>
</mask>
<g mask="url(#mask0_4939_56695)">
<path fill-rule="evenodd" clip-rule="evenodd" d="M71.2812 37.7501C71.2812 26.024 75.429 16.0108 83.7199 7.71997C84.4135 7.02632 85.1213 6.36097 85.8386 5.72394C82.6043 5.04902 79.3086 4.71218 76.0047 4.71885H75.9953C63.8209 4.71885 53.2226 8.80057 44.1956 16.964C35.1687 25.1274 30.0394 35.2633 28.8172 47.3716L24.8157 86.9808C18.0443 90.1141 14.6562 95.7247 14.6562 103.808V103.817C14.6562 116.397 20.9463 122.688 33.5265 122.688H118.473C131.054 122.688 137.344 116.397 137.344 103.817V103.808C137.344 95.7247 133.956 90.1141 127.184 86.9808L126.321 78.4399C122.24 79.6457 118.005 80.2451 113.75 80.2188C102.024 80.2188 92.0107 76.0711 83.7199 67.7802C75.429 59.4894 71.2812 49.4762 71.2812 37.7501ZM90.3922 14.3923C83.9417 20.8428 80.7188 28.6287 80.7188 37.7501C80.7188 46.8714 83.9417 54.6574 90.3922 61.1079C96.8427 67.5584 104.629 70.7813 113.75 70.7813C122.871 70.7813 130.657 67.5584 137.108 61.1079C143.558 54.6574 146.781 46.8714 146.781 37.7501C146.781 28.6287 143.558 20.8428 137.108 14.3923C130.657 7.94175 122.871 4.71885 113.75 4.71885C104.629 4.71885 96.8427 7.94175 90.3922 14.3923ZM109.314 33.7203L107.649 32.0546C106.729 31.1344 105.62 30.672 104.312 30.672C103.005 30.672 101.896 31.1344 100.976 32.0546C100.536 32.4911 100.187 33.0109 99.9496 33.5836C99.7123 34.1564 99.5913 34.7707 99.5938 35.3907C99.5915 36.0107 99.7127 36.6249 99.95 37.1976C100.187 37.7704 100.536 38.2902 100.976 38.7269L108.054 45.805C108.975 46.7252 110.084 47.1876 111.391 47.1876C112.698 47.1876 113.807 46.7252 114.727 45.805L128.883 31.6487C129.323 31.2122 129.672 30.6924 129.91 30.1197C130.147 29.5469 130.268 28.9326 130.266 28.3126C130.268 27.6926 130.147 27.0784 129.909 26.5057C129.672 25.9329 129.323 25.4131 128.883 24.9764C127.963 24.0563 126.854 23.5938 125.547 23.5938C124.24 23.5938 123.131 24.0563 122.211 24.9764L115.538 31.6487L111.391 35.7965L109.314 33.7203ZM55.9831 137.99C54.2146 136.238 52.6765 134.267 51.4059 132.125H100.604C99.3767 134.201 97.8525 136.16 96.0264 137.99C90.4866 143.516 83.819 146.281 76 146.281C68.181 146.281 61.5087 143.516 55.9783 137.99H55.9831Z" fill="#8DC540"/>
</g>
</g>
<defs>
<clipPath id="clip0_4939_56695">
<rect width="151" height="151" fill="white" transform="translate(0.5)"/>
</clipPath>
</defs>
</svg>
