<svg width="120" height="119" viewBox="0 0 120 119" fill="none" xmlns="http://www.w3.org/2000/svg">
<path d="M98.3398 0.132812H21.6602C10.1287 0.132812 0.720703 9.54082 0.720703 21.0723C0.720703 31.3945 8.21172 39.9768 18.0326 41.6873V101.055C18.0326 105.803 19.8906 110.286 23.2527 113.648C26.6148 117.01 31.0682 118.868 35.8459 118.868H84.1836C94.0045 118.868 101.967 110.876 101.967 101.085V41.6873C111.788 39.9768 119.279 31.365 119.279 21.0723C119.279 9.54082 109.871 0.132812 98.3398 0.132812ZM78.4916 89.1992L63.1262 104.565C62.3004 105.39 61.1797 105.862 60 105.862C58.8203 105.862 57.6996 105.39 56.8738 104.565L41.5084 89.1992C39.7684 87.4592 39.7684 84.6574 41.5084 82.9469C43.2484 81.2068 46.0502 81.2068 47.7607 82.9469L55.5762 90.7623V63.5705C55.5762 61.1227 57.5521 59.1467 60 59.1467C62.4479 59.1467 64.4238 61.1227 64.4238 63.5705V90.7623L72.2393 82.9469C73.9793 81.2068 76.7811 81.2068 78.4916 82.9469C80.2316 84.6869 80.2316 87.4887 78.4916 89.1992ZM46.6695 42.3361C46.6695 39.8883 48.6455 37.9123 51.0934 37.9123H68.8772C71.325 37.9123 73.301 39.8883 73.301 42.3361C73.301 44.784 71.325 46.76 68.8772 46.76H51.0934C48.6455 46.76 46.6695 44.7545 46.6695 42.3361ZM101.967 32.6037V25.4961H102.439C104.887 25.4961 106.863 23.5201 106.863 21.0723C106.863 18.6244 104.887 16.6484 102.439 16.6484H17.5607C15.1129 16.6484 13.1369 18.6244 13.1369 21.0723C13.1369 23.5201 15.1129 25.4961 17.5607 25.4961H18.0326V32.6037C13.1369 31.0701 9.56836 26.4988 9.56836 21.0723C9.56836 14.407 14.9949 8.98047 21.6602 8.98047H98.3398C105.005 8.98047 110.432 14.407 110.432 21.0723C110.432 26.4988 106.863 31.0701 101.967 32.6037Z" fill="#8DC540"/>
</svg>
