<svg width="24" height="24" viewBox="0 0 24 24" fill="none" xmlns="http://www.w3.org/2000/svg">
<mask id="mask0_4972_89768" style="mask-type:luminance" maskUnits="userSpaceOnUse" x="-1" y="-1" width="26" height="26">
<path d="M0.578125 0.480469H23.6181V23.5205H0.578125V0.480469Z" fill="white" stroke="white" stroke-width="2"/>
</mask>
<g mask="url(#mask0_4972_89768)">
<path d="M9.70005 23.5205C9.33232 23.5218 8.968 23.4501 8.62819 23.3095C8.28839 23.1689 7.97987 22.9623 7.72053 22.7016L1.39701 16.3781C1.13668 16.1193 0.930261 15.8114 0.789701 15.4723C0.649142 15.1331 0.577232 14.7695 0.578133 14.4024C0.578133 13.6526 0.869013 12.9509 1.39701 12.4229L12.0741 1.74577C12.4744 1.34322 12.9507 1.02411 13.4752 0.806922C13.9997 0.589731 14.5621 0.478778 15.1298 0.480488H21.2191C22.542 0.480488 23.6191 1.55761 23.6191 2.88049V8.96977C23.6207 9.53731 23.5097 10.0995 23.2925 10.6239C23.0753 11.1482 22.7562 11.6243 22.3538 12.0245L11.6757 22.7016C11.1477 23.2296 10.4469 23.5205 9.70005 23.5205ZM15.1289 1.44049C14.2313 1.44049 13.3884 1.78993 12.7529 2.42449L2.07573 13.1016C1.73013 13.4482 1.53813 13.909 1.53813 14.3986C1.53813 14.892 1.73013 15.3528 2.07573 15.6984L8.40021 22.0229C9.09621 22.7179 10.3068 22.7131 10.997 22.0229L21.6751 11.3448C21.9878 11.0336 22.2357 10.6634 22.4045 10.2557C22.5732 9.84807 22.6594 9.41098 22.6581 8.96977V2.88049C22.6581 2.08657 22.0121 1.44049 21.2181 1.44049H15.1289Z" fill="#8DC540" stroke="#8DC540" stroke-width="0.8"/>
<path d="M18.3375 8.16133C17.0146 8.16133 15.9375 7.08421 15.9375 5.76133C15.9375 4.43845 17.0146 3.36133 18.3375 3.36133C19.6604 3.36133 20.7375 4.43845 20.7375 5.76133C20.7375 7.08421 19.6604 8.16133 18.3375 8.16133ZM18.3375 4.32133C17.5436 4.32133 16.8975 4.96741 16.8975 5.76133C16.8975 6.55525 17.5436 7.20133 18.3375 7.20133C19.1314 7.20133 19.7775 6.55525 19.7775 5.76133C19.7775 4.96741 19.1314 4.32133 18.3375 4.32133Z" fill="#8DC540" stroke="#8DC540" stroke-width="0.5"/>
</g>
</svg>
