<?xml version="1.0" encoding="utf-8"?>
<!-- Generator: Adobe Illustrator 21.0.0, SVG Export Plug-In . SVG Version: 6.00 Build 0)  -->
<svg version="1.1" id="Layer_1" xmlns="http://www.w3.org/2000/svg" xmlns:xlink="http://www.w3.org/1999/xlink" x="0px" y="0px"
	 viewBox="0 0 20 22" style="enable-background:new 0 0 20 22;" xml:space="preserve">
<style type="text/css">
	.st0{fill:#8EC542;}
</style>
<g>
	<path class="st0" d="M16,18.4c0.5,0.1,1.1,0.1,1.6,0.2c0.2,0,0.2,0.1,0.2,0.2c0,0.2-0.1,0.5-0.1,0.8c0,0.1-0.1,0.1-0.2,0.1
		c-1.2-0.1-2.4-0.3-3.6-0.4c-0.2,0-0.1-0.1-0.1-0.2c0.1-1,0.2-1.9,0.4-2.9c0-0.2,0.1-0.4,0.1-0.6c0-0.1,0-0.2,0.1-0.1
		c0.3,0,0.6,0.1,0.8,0.1c0.1,0,0.2,0.1,0.1,0.2c-0.1,0.6-0.1,1.1-0.2,1.7c0,0.1,0,0.1,0,0.2c0.4-0.3,0.7-0.6,1-0.9
		c1.2-1.4,1.9-3,2.1-4.8c0.2-2.3-0.4-4.3-1.8-6.1c-1.4-1.7-3.1-2.7-5.3-3c-0.3-0.1-0.7-0.1-1-0.1C10,2.7,10,2.6,10,2.4
		c0-0.2,0-0.5,0-0.7c0-0.2,0.1-0.2,0.2-0.2c2,0.1,3.8,0.6,5.3,1.8c2.2,1.6,3.5,3.8,3.8,6.5c0.4,3.3-0.7,6.1-3.2,8.3
		C16.1,18.2,16.1,18.2,16,18.4C16,18.3,16,18.3,16,18.4z"/>
	<path class="st0" d="M4,3.6C3.4,3.6,2.9,3.5,2.4,3.5c-0.2,0-0.2-0.1-0.2-0.2C2.2,3,2.3,2.7,2.3,2.5c0-0.1,0-0.2,0.2-0.2
		C3.6,2.5,4.8,2.6,6,2.8c0.1,0,0.2,0.1,0.2,0.2C6,4.2,5.9,5.3,5.7,6.5c0,0.1,0,0.1-0.1,0.1C5.3,6.6,5,6.6,4.7,6.5
		c-0.1,0-0.1-0.1-0.1-0.2c0.1-0.6,0.1-1.1,0.2-1.7c0-0.1,0-0.1,0-0.2c-0.4,0.3-0.7,0.6-1,1c-1.2,1.4-1.9,2.9-2.1,4.7
		c-0.2,2.3,0.4,4.3,1.9,6.1c1.4,1.7,3.1,2.6,5.3,3c0.3,0.1,0.7,0.1,1,0.1c0.2,0,0.2,0.1,0.2,0.2c0,0.2,0,0.4,0,0.7
		c0,0.2,0,0.3-0.2,0.2c-1.6,0-3-0.4-4.4-1.2c-2.5-1.4-4.1-3.6-4.7-6.4C0.1,9.3,1.1,6.3,3.8,3.8C3.9,3.8,3.9,3.8,4,3.6
		C4,3.7,4,3.7,4,3.6z"/>
	<path class="st0" d="M10,6c2.8,0,5,2.2,5,5c0,2.8-2.2,5-5,5c-2.8,0-5-2.2-5-5C5,8.2,7.2,6,10,6z M5.8,11c0,2.3,1.9,4.2,4.2,4.2
		c2.3,0,4.2-1.9,4.2-4.2c0-2.3-1.9-4.2-4.2-4.2C7.7,6.8,5.8,8.7,5.8,11z"/>
	<path class="st0" d="M13.5,10.2c0,0-0.1,0.1-0.1,0.1c-1.2,1.2-2.4,2.4-3.6,3.6c-0.1,0.1-0.1,0.1-0.2,0c-0.9-0.9-1.9-1.9-2.8-2.8
		c-0.1-0.1-0.1-0.2,0-0.3c0.5-0.5,1.1-1.1,1.6-1.6c0.1-0.1,0.2-0.1,0.3,0c0.3,0.3,0.6,0.6,0.9,0.9c0.1,0.1,0.2,0.1,0.3,0
		c0.6-0.6,1.1-1.1,1.7-1.7c0.1-0.1,0.2-0.1,0.3,0c0.5,0.5,1.1,1.1,1.6,1.6C13.4,10.1,13.4,10.2,13.5,10.2z M12.3,10.2
		C12.3,10.2,12.3,10.1,12.3,10.2c-0.2-0.3-0.4-0.4-0.6-0.6c-0.1-0.1-0.2-0.1-0.3,0c-0.6,0.6-1.1,1.1-1.7,1.7c-0.1,0.1-0.2,0.1-0.3,0
		c-0.3-0.3-0.6-0.6-0.9-0.9c-0.1-0.1-0.2-0.1-0.3,0c-0.2,0.2-0.4,0.4-0.5,0.5c-0.1,0.1-0.1,0.1,0,0.2c0.6,0.6,1.2,1.2,1.7,1.7
		c0.1,0.1,0.1,0.1,0.2,0c0.8-0.8,1.7-1.7,2.5-2.5C12.3,10.3,12.3,10.3,12.3,10.2z"/>
</g>
</svg>
