<svg width="24" height="24" viewBox="0 0 24 24" fill="none" xmlns="http://www.w3.org/2000/svg">
<path d="M22.9088 12.1007V8.7275C22.9088 7.5837 22.0216 6.6535 20.9006 6.56329L17.7681 1.09179C17.4778 0.585754 17.009 0.224073 16.4481 0.0738875C15.8899 -0.0752748 15.3061 0.00306481 14.8064 0.293873L4.06783 6.5457H2.1818C0.97853 6.5457 0 7.52418 0 8.7275V21.8182C0 23.0215 0.978478 24 2.1818 24H20.727C21.9302 24 22.9088 23.0215 22.9088 21.8182V18.445C23.5423 18.2191 23.9996 17.6194 23.9996 16.9092V13.6365C23.9996 12.9263 23.5423 12.3266 22.9088 12.1007ZM19.633 6.5457H14.8789L18.4445 4.4698L19.633 6.5457ZM17.9025 3.52313L12.7108 6.5457H10.5573L17.3641 2.5827L17.9025 3.52313ZM15.3556 1.23666C15.6022 1.0923 15.8904 1.05395 16.1658 1.12748C16.4444 1.20204 16.6766 1.38209 16.821 1.63403L16.8221 1.63603L8.38935 6.5457H6.23598L15.3556 1.23666ZM21.8178 21.8182C21.8178 22.4196 21.3283 22.9091 20.727 22.9091H2.1818C1.58045 22.9091 1.09093 22.4196 1.09093 21.8182V8.7275C1.09093 8.12615 1.58045 7.63663 2.1818 7.63663H20.727C21.3283 7.63663 21.8178 8.12615 21.8178 8.7275V12.0002H18.5452C16.7405 12.0002 15.2725 13.4682 15.2725 15.2728C15.2725 17.0775 16.7405 18.5455 18.5452 18.5455H21.8178V21.8182ZM22.9088 16.9092C22.9088 17.2101 22.6643 17.4546 22.3633 17.4546H18.5452C17.3419 17.4546 16.3634 16.4762 16.3634 15.2728C16.3634 14.0696 17.3418 13.091 18.5452 13.091H22.3633C22.6642 13.091 22.9088 13.3355 22.9088 13.6365V16.9092Z" fill="#8DC540" stroke="#8DC540" stroke-width="0.3"/>
<path d="M18.6349 15.2724V15.2725C18.6349 15.3216 18.5931 15.3634 18.544 15.3634C18.4949 15.3634 18.4531 15.3216 18.4531 15.2725C18.4531 15.2234 18.4949 15.1816 18.544 15.1816C18.5932 15.1816 18.6349 15.2235 18.6349 15.2724Z" fill="#8DC540" stroke="#6D6D6D" stroke-width="2"/>
</svg>
