<svg width="144" height="145" viewBox="0 0 144 145" fill="none" xmlns="http://www.w3.org/2000/svg">
<path d="M71.9984 0.775391C32.3911 0.775391 0.273438 32.8931 0.273438 72.5004C0.273438 112.108 32.3911 144.225 71.9984 144.225C111.606 144.225 143.723 112.108 143.723 72.5004C143.723 32.8931 111.606 0.775391 71.9984 0.775391ZM105.958 88.0836C107.068 89.196 107.691 90.7029 107.691 92.2738C107.691 93.8448 107.068 95.3517 105.958 96.4641L95.9621 106.46C94.8497 107.57 93.3429 108.192 91.7719 108.192C90.2009 108.192 88.694 107.57 87.5816 106.46L71.9984 90.8771L56.4152 106.46C55.3028 107.57 53.796 108.192 52.225 108.192C50.654 108.192 49.1471 107.57 48.0347 106.46L38.0385 96.4641C36.9293 95.3517 36.3063 93.8448 36.3063 92.2738C36.3063 90.7029 36.9293 89.196 38.0385 88.0836L53.6217 72.5004L38.0385 56.9172C36.9293 55.8048 36.3063 54.2979 36.3063 52.7269C36.3063 51.156 36.9293 49.6491 38.0385 48.5367L48.0347 38.5405C49.1471 37.4312 50.654 36.8083 52.225 36.8083C53.796 36.8083 55.3028 37.4312 56.4152 38.5405L71.9984 54.1237L87.5816 38.5405C88.694 37.4312 90.2009 36.8083 91.7719 36.8083C93.3429 36.8083 94.8497 37.4312 95.9621 38.5405L105.958 48.5367C107.068 49.6491 107.691 51.156 107.691 52.7269C107.691 54.2979 107.068 55.8048 105.958 56.9172L90.3751 72.5004L105.958 88.0836Z" fill="#D9363E"/>
</svg>
