<svg width="136" height="135" viewBox="0 0 136 135" fill="none" xmlns="http://www.w3.org/2000/svg">
<path d="M123.938 89.875H101.562V11.5625C101.562 10.0789 100.973 8.65615 99.9241 7.60712C98.8751 6.55809 97.4523 5.96875 95.9688 5.96875H12.0625C10.5789 5.96875 9.15615 6.55809 8.10712 7.60712C7.05809 8.65615 6.46875 10.0789 6.46875 11.5625V101.062C6.46875 104.735 7.19218 108.372 8.59774 111.766C10.0033 115.159 12.0635 118.242 14.6606 120.839C19.9058 126.085 27.0197 129.031 34.4375 129.031H107.156C113.09 129.031 118.782 126.674 122.978 122.478C127.174 118.282 129.531 112.59 129.531 106.656V95.4688C129.531 93.9852 128.942 92.5624 127.893 91.5134C126.844 90.4643 125.421 89.875 123.938 89.875ZM34.4375 117.844C29.9868 117.844 25.7185 116.076 22.5714 112.929C19.4243 109.782 17.6563 105.513 17.6562 101.062V17.1562H90.375V89.875H51.2188C49.7352 89.875 48.3124 90.4643 47.2634 91.5134C46.2143 92.5624 45.625 93.9852 45.625 95.4688V112.25C45.625 113.734 45.0357 115.156 43.9866 116.205C42.9376 117.254 41.5148 117.844 40.0312 117.844H34.4375ZM118.344 106.656C118.344 109.623 117.165 112.469 115.067 114.567C112.969 116.665 110.123 117.844 107.156 117.844H55.8616C56.4938 116.047 56.8153 114.155 56.8125 112.25V101.062H118.344V106.656Z" fill="#B4B5B9"/>
<path d="M34.4375 45.125H73.5938C75.0773 45.125 76.5001 44.5357 77.5491 43.4866C78.5982 42.4376 79.1875 41.0148 79.1875 39.5312C79.1875 38.0477 78.5982 36.6249 77.5491 35.5759C76.5001 34.5268 75.0773 33.9375 73.5938 33.9375H34.4375C32.9539 33.9375 31.5312 34.5268 30.4821 35.5759C29.4331 36.6249 28.8438 38.0477 28.8438 39.5312C28.8438 41.0148 29.4331 42.4376 30.4821 43.4866C31.5312 44.5357 32.9539 45.125 34.4375 45.125ZM62.4062 61.9062C62.4062 60.4227 61.8169 58.9999 60.7679 57.9509C59.7188 56.9018 58.2961 56.3125 56.8125 56.3125H34.4375C32.9539 56.3125 31.5312 56.9018 30.4821 57.9509C29.4331 58.9999 28.8438 60.4227 28.8438 61.9062C28.8438 63.3898 29.4331 64.8126 30.4821 65.8616C31.5312 66.9107 32.9539 67.5 34.4375 67.5H56.8125C58.2961 67.5 59.7188 66.9107 60.7679 65.8616C61.8169 64.8126 62.4062 63.3898 62.4062 61.9062Z" fill="#B4B5B9"/>
</svg>
