<svg width="136" height="137" viewBox="0 0 136 137" fill="none" xmlns="http://www.w3.org/2000/svg">
<path d="M131.011 115.786L102.816 87.59C102.174 86.9522 101.344 86.537 100.449 86.4053C99.5539 86.2736 98.64 86.4323 97.8417 86.8582L72.0598 61.0763L72.2422 60.8939C73.8966 59.2394 73.8966 56.5499 72.2422 54.8954L68.8781 51.5314L80.1051 40.3044C80.3023 40.1077 80.4588 39.874 80.5654 39.6166C80.6721 39.3593 80.7269 39.0834 80.7266 38.8048C80.7266 30.032 77.3116 21.7852 71.1074 15.5788L67.8918 12.3675C64.8495 9.30757 61.2303 6.8816 57.2438 5.23008C53.2574 3.57857 48.9829 2.73431 44.668 2.74622C44.3894 2.74581 44.1135 2.80052 43.8561 2.90718C43.5987 3.01384 43.365 3.17035 43.1684 3.3677L2.86758 43.6685C2.67032 43.8652 2.51387 44.0989 2.40722 44.3563C2.30056 44.6136 2.24581 44.8895 2.24609 45.1681C2.24609 53.9409 5.66106 62.1878 11.8653 68.3941L15.0808 71.6054C18.1232 74.6653 21.7424 77.0913 25.7288 78.7428C29.7152 80.3943 33.9897 81.2386 38.3047 81.2267C38.8689 81.2267 39.4077 81.004 39.8043 80.6052L51.0312 69.3783L54.3953 72.7423C55.2225 73.5695 56.3085 73.9831 57.3945 73.9831C58.4805 73.9831 59.5665 73.5695 60.3938 72.7423L60.5762 72.5599L86.3581 98.3418C85.5117 99.9432 85.7429 101.969 87.0898 103.316L115.286 131.511C116.153 132.384 117.184 133.075 118.321 133.546C119.457 134.017 120.675 134.257 121.905 134.254H124.391C126.892 134.254 129.242 133.28 131.011 131.514C132.78 129.747 133.754 127.394 133.754 124.892V122.406C133.758 121.176 133.517 119.957 133.047 118.821C132.576 117.684 131.884 116.653 131.011 115.786ZM112.543 103.316L115.907 106.68L106.18 116.407L102.816 113.043L112.543 103.316ZM99.8164 110.044L96.4524 106.68L106.18 96.9525L109.544 100.317L99.8164 110.044ZM118.906 109.679L122.27 113.043L112.543 122.77L109.179 119.406L118.906 109.679ZM48.9102 65.5009L17.9719 34.5626L34.0625 18.472L65.0008 49.4103L48.9102 65.5009ZM45.5334 7.00113C52.8211 7.20123 59.7526 10.1965 64.8926 15.3667L68.1082 18.5781C73.277 23.7188 76.2715 30.65 76.4716 37.9373L68 46.4111L37.0617 15.4728L45.5334 7.00113ZM37.4393 76.9718C30.1516 76.7717 23.22 73.7764 18.0801 68.6062L14.8645 65.3948C9.69561 60.2542 6.70119 53.3229 6.50101 46.0356L14.9727 37.5619L45.9109 68.5001L37.4393 76.9718ZM54.0305 66.379L65.8789 54.5306L69.243 57.8947L57.3945 69.7431L54.0305 66.379ZM69.0605 64.0755L94.6961 89.7111L89.2109 95.1962L63.5754 69.5607L69.0605 64.0755ZM99.8164 90.5892L103.18 93.9532L93.4531 103.681L90.0891 100.317L99.8164 90.5892ZM129.512 124.892C129.512 126.26 128.979 127.545 128.012 128.512C127.045 129.479 125.757 130.012 124.391 130.012H121.905C121.233 130.014 120.566 129.882 119.945 129.625C119.323 129.367 118.759 128.989 118.285 128.512L115.542 125.77L125.27 116.042L128.012 118.785C128.979 119.752 129.512 121.037 129.512 122.406V124.892Z" fill="#B4B5B9" stroke="#B4B5B9" stroke-width="3.95937"/>
</svg>
