<svg width="152" height="151" viewBox="0 0 152 151" fill="none" xmlns="http://www.w3.org/2000/svg">
<g clip-path="url(#clip0_4972_22983)">
<path d="M86.7779 96.003C85.3194 97.4576 83.5439 98.555 81.5905 99.2091L62.8214 105.465C61.4684 105.917 60.0513 106.147 58.625 106.147C55.0797 106.147 51.7468 104.766 49.2403 102.259C45.6626 98.6806 44.4345 93.477 46.0345 88.6777L52.2909 69.9095C52.9444 67.9558 54.0417 66.1801 55.4967 64.7218L96.0352 24.1836H16.7207C7.77661 24.1836 0.5 31.4602 0.5 40.4043V134.779C0.5 143.723 7.77661 151 16.7207 151H111.096C120.04 151 127.316 143.723 127.316 134.779V55.4648L86.7779 96.003Z" fill="#8DC540"/>
<path d="M61.7531 70.9783C61.2675 71.4639 60.9016 72.0559 60.6846 72.7075L54.4281 91.476C54.1684 92.2554 54.1308 93.0917 54.3196 93.8912C54.5083 94.6907 54.916 95.4219 55.4969 96.0027C56.0778 96.5836 56.8089 96.9913 57.6085 97.1801C58.408 97.3689 59.2443 97.3313 60.0236 97.0715L78.7925 90.8154C79.444 90.5984 80.0361 90.2325 80.5216 89.7469L135.785 34.4835L117.017 15.715L61.7531 70.9783ZM140.999 2.15949C138.119 -0.719831 133.451 -0.719831 130.572 2.15949L123.273 9.45851L142.041 28.2273L149.34 20.9283C152.22 18.049 152.22 13.3807 149.34 10.5014L140.999 2.15949Z" fill="#8DC540"/>
</g>
<defs>
<clipPath id="clip0_4972_22983">
<rect width="151" height="151" fill="white" transform="translate(0.5)"/>
</clipPath>
</defs>
</svg>
