<svg width="164" height="187" viewBox="0 0 164 187" fill="none" xmlns="http://www.w3.org/2000/svg">
<path d="M136.295 185.025L36.6363 175.35C33.7467 175.066 31.0877 173.647 29.2426 171.405C27.3976 169.164 26.5171 166.281 26.7944 163.391L28.0039 150.934C28.1241 149.695 28.7317 148.554 29.6928 147.763C30.6539 146.972 31.8899 146.596 33.1289 146.716C34.3678 146.836 35.5083 147.444 36.2993 148.405C37.0903 149.366 37.4671 150.602 37.3468 151.841L36.1374 164.298C36.1023 164.71 36.2297 165.12 36.4924 165.439C36.7552 165.758 37.1323 165.962 37.5433 166.007L137.202 175.682C137.614 175.717 138.023 175.59 138.342 175.327C138.662 175.064 138.865 174.687 138.91 174.276L151.005 49.7032C151.04 49.2913 150.912 48.882 150.65 48.5627C150.387 48.2435 150.01 48.0397 149.599 47.9949L137.141 46.7854C135.902 46.6652 134.762 46.0576 133.971 45.0965C133.18 44.1354 132.803 42.8994 132.923 41.6604C133.044 40.4215 133.651 39.281 134.612 38.49C135.574 37.699 136.81 37.3222 138.049 37.4425L150.506 38.6519C153.395 38.9358 156.054 40.3543 157.899 42.5961C159.745 44.838 160.625 47.7201 160.348 50.6103L148.253 175.183C147.969 178.073 146.551 180.732 144.309 182.577C142.067 184.422 139.185 185.303 136.295 185.025Z" fill="#1D202D"/>
<path d="M119.423 164.526L13.5354 154.245C10.6459 153.961 7.98689 152.543 6.14182 150.301C4.29676 148.059 3.41629 145.177 3.69357 142.287L16.3929 11.4851C16.6768 8.59554 18.0952 5.93656 20.3371 4.0915C22.5789 2.24643 25.4611 1.36596 28.3513 1.64324L134.238 11.9236C137.128 12.2075 139.787 13.626 141.632 15.8678C143.477 18.1097 144.358 20.9919 144.08 23.8821L131.381 154.684C131.097 157.573 129.679 160.232 127.437 162.077C125.195 163.922 122.313 164.803 119.423 164.526ZM27.4442 10.9862C27.0312 10.9461 26.6192 11.0717 26.2989 11.3354C25.9785 11.5991 25.776 11.9792 25.7359 12.3922L13.0365 143.194C12.9964 143.607 13.122 144.019 13.3857 144.339C13.6494 144.66 14.0295 144.862 14.4425 144.902L120.33 155.183C120.743 155.223 121.155 155.097 121.475 154.833C121.795 154.57 121.998 154.19 122.038 153.777L134.737 22.975C134.777 22.562 134.652 22.15 134.388 21.8296C134.124 21.5092 133.744 21.3067 133.331 21.2666L27.4442 10.9862Z" fill="#8DC540"/>
<path d="M67.582 79.8373C64.3594 79.518 61.3939 77.9373 59.3323 75.4399L49.6255 63.6455C48.605 62.4077 47.8386 60.9808 47.3702 59.4465C46.9017 57.9122 46.7404 56.3006 46.8954 54.7039C47.0504 53.1072 47.5188 51.5567 48.2736 50.1412C49.0285 48.7256 50.055 47.4728 51.2945 46.4544C53.7983 44.4038 57.012 43.4276 60.2334 43.7392C63.4548 44.0507 66.4218 45.6248 68.4862 48.1173L70.0159 49.9759L86.9576 34.4626C88.1389 33.375 89.5242 32.5325 91.0334 31.984C92.5425 31.4355 94.1455 31.1918 95.7494 31.2671C97.3557 31.3208 98.9344 31.7 100.39 32.3817C101.845 33.0634 103.147 34.0333 104.217 35.2329C106.396 37.6243 107.54 40.7818 107.397 44.0142C107.254 47.2466 105.836 50.2908 103.454 52.4805L77.0104 76.691C75.7853 77.8087 74.3463 78.6665 72.7804 79.2125C71.2145 79.7586 69.5541 79.9816 67.8996 79.8681L67.582 79.8373ZM66.5757 69.4786C67.0805 70.0648 67.7934 70.4316 68.5638 70.5015C68.9471 70.5288 69.3319 70.4774 69.6946 70.3504C70.0572 70.2235 70.3901 70.0236 70.6726 69.7632L97.1157 45.5589C97.6667 45.0512 97.9943 44.3461 98.0269 43.5976C98.0595 42.8491 97.7945 42.1181 97.2898 41.5644C97.0457 41.284 96.7459 41.0575 96.4094 40.8992C96.073 40.741 95.7073 40.6546 95.3356 40.6454C94.9632 40.6283 94.591 40.6854 94.2408 40.8133C93.8905 40.9412 93.5692 41.1373 93.2954 41.3904L72.7038 60.2401C72.2338 60.6707 71.6809 61.001 71.0789 61.2106C70.477 61.4203 69.8386 61.5049 69.2028 61.4595C68.5657 61.4203 67.9437 61.2487 67.3767 60.9554C66.8098 60.6622 66.3102 60.2539 65.9101 59.7566L61.2422 54.0848C60.7636 53.5063 60.075 53.1413 59.3275 53.0699C58.58 52.9985 57.8348 53.2266 57.2553 53.704C56.9682 53.9391 56.7304 54.2285 56.5556 54.5558C56.3807 54.883 56.2723 55.2415 56.2364 55.6108C56.2006 55.9801 56.238 56.3528 56.3467 56.7075C56.4553 57.0623 56.633 57.3921 56.8694 57.6779L66.5757 69.4786ZM112.408 107.258L31.4358 99.3962C30.1968 99.2759 29.0564 98.6684 28.2654 97.7073C27.4743 96.7461 27.0975 95.5101 27.2178 94.2712C27.3381 93.0322 27.9456 91.8918 28.9068 91.1008C29.8679 90.3098 31.1039 89.9329 32.3429 90.0532L113.315 97.9147C114.554 98.035 115.695 98.6425 116.486 99.6037C117.277 100.565 117.654 101.801 117.533 103.04C117.413 104.279 116.805 105.419 115.844 106.21C114.883 107.001 113.647 107.378 112.408 107.258ZM110.594 125.944L29.6216 118.082C28.3826 117.962 27.2422 117.354 26.4512 116.393C25.6602 115.432 25.2833 114.196 25.4036 112.957C25.5239 111.718 26.1315 110.578 27.0926 109.787C28.0537 108.996 29.2897 108.619 30.5287 108.739L111.501 116.601C112.74 116.721 113.881 117.328 114.672 118.29C115.463 119.251 115.839 120.487 115.719 121.726C115.599 122.965 114.991 124.105 114.03 124.896C113.069 125.687 111.833 126.064 110.594 125.944ZM108.78 144.63L27.8074 136.768C26.5684 136.648 25.428 136.04 24.637 135.079C23.846 134.118 23.4692 132.882 23.5894 131.643C23.7097 130.404 24.3173 129.264 25.2784 128.473C26.2395 127.682 27.4755 127.305 28.7145 127.425L109.687 135.287C110.926 135.407 112.066 136.014 112.857 136.976C113.648 137.937 114.025 139.173 113.905 140.412C113.785 141.651 113.177 142.791 112.216 143.582C111.255 144.373 110.019 144.75 108.78 144.63Z" fill="#8DC540"/>
</svg>
