<svg width="110" height="110" viewBox="0 0 110 110" fill="none" xmlns="http://www.w3.org/2000/svg">
<path d="M63.125 81.4062C63.125 83.0132 62.6485 84.5841 61.7557 85.9203C60.8629 87.2564 59.594 88.2978 58.1093 88.9128C56.6247 89.5277 54.991 89.6886 53.4149 89.3751C51.8388 89.0616 50.3911 88.2878 49.2548 87.1515C48.1185 86.0152 47.3446 84.5675 47.0311 82.9914C46.7176 81.4153 46.8785 79.7816 47.4935 78.2969C48.1085 76.8123 49.1499 75.5434 50.486 74.6506C51.8222 73.7578 53.3931 73.2812 55 73.2812C57.1549 73.2812 59.2215 74.1373 60.7453 75.661C62.269 77.1847 63.125 79.2514 63.125 81.4062ZM109.844 55C109.844 65.8471 106.627 76.4505 100.601 85.4696C94.5746 94.4886 86.0092 101.518 75.9878 105.669C65.9664 109.82 54.9392 110.906 44.3005 108.79C33.6619 106.674 23.8897 101.45 16.2196 93.7804C8.5496 86.1104 3.32624 76.3381 1.21008 65.6995C-0.906076 55.0608 0.180013 44.0336 4.33101 34.0122C8.482 23.9908 15.5115 15.4254 24.5305 9.39909C33.5495 3.37278 44.153 0.15625 55 0.15625C69.5405 0.172379 83.4809 5.95572 93.7626 16.2374C104.044 26.5191 109.828 40.4595 109.844 55ZM97.6563 55C97.6563 46.5634 95.1545 38.3162 90.4674 31.3015C85.7803 24.2867 79.1183 18.8193 71.3239 15.5908C63.5294 12.3622 54.9527 11.5175 46.6782 13.1634C38.4037 14.8093 30.8031 18.8719 24.8375 24.8375C18.8719 30.8031 14.8093 38.4037 13.1634 46.6782C11.5175 54.9527 12.3622 63.5294 15.5908 71.3238C18.8193 79.1182 24.2867 85.7802 31.3015 90.4674C38.3163 95.1545 46.5634 97.6562 55 97.6562C66.3094 97.6441 77.1522 93.1461 85.1492 85.1492C93.1462 77.1522 97.6442 66.3094 97.6563 55ZM55 22.5C42.6805 22.5 32.6563 31.6102 32.6563 42.8125V44.8438C32.6563 46.4599 33.2983 48.0099 34.4411 49.1527C35.5839 50.2955 37.1339 50.9375 38.75 50.9375C40.3662 50.9375 41.9162 50.2955 43.059 49.1527C44.2018 48.0099 44.8438 46.4599 44.8438 44.8438V42.8125C44.8438 38.3336 49.4141 34.6875 55 34.6875C60.586 34.6875 65.1563 38.3336 65.1563 42.8125C65.1563 47.2914 60.586 50.9375 55 50.9375C53.3839 50.9375 51.8339 51.5795 50.6911 52.7223C49.5483 53.8651 48.9063 55.4151 48.9063 57.0312V61.0938C48.9026 62.5993 49.4565 64.0529 50.461 65.1743C51.4655 66.2957 52.8496 67.0056 54.3464 67.167C55.8432 67.3285 57.3469 66.9302 58.5674 66.0488C59.788 65.1674 60.6391 63.8654 60.9567 62.3937C70.3918 60.0172 77.3438 52.141 77.3438 42.8125C77.3438 31.6102 67.3196 22.5 55 22.5Z" fill="#979797"/>
</svg>
