<svg width="24" height="24" viewBox="0 0 24 24" fill="none" xmlns="http://www.w3.org/2000/svg">
<path d="M20.7395 23.251H15.6395C14.252 23.251 13.127 22.126 13.127 20.7385V13.876C13.127 13.4635 13.4645 13.126 13.877 13.126H20.7395C22.127 13.126 23.252 14.251 23.252 15.6385V20.7385C23.252 22.126 22.127 23.251 20.7395 23.251ZM14.627 14.626V20.7385C14.627 21.301 15.077 21.751 15.6395 21.751H20.7395C21.302 21.751 21.752 21.301 21.752 20.7385V15.6385C21.752 15.076 21.302 14.626 20.7395 14.626H14.627ZM8.36445 23.251H3.26445C1.87695 23.251 0.751953 22.126 0.751953 20.7385V15.6385C0.751953 14.251 1.87695 13.126 3.26445 13.126H10.127C10.5395 13.126 10.877 13.4635 10.877 13.876V20.7385C10.877 22.126 9.75195 23.251 8.36445 23.251ZM3.26445 14.626C2.70195 14.626 2.25195 15.076 2.25195 15.6385V20.7385C2.25195 21.301 2.70195 21.751 3.26445 21.751H8.36445C8.92695 21.751 9.37695 21.301 9.37695 20.7385V14.626H3.26445ZM20.7395 10.876H13.877C13.4645 10.876 13.127 10.5385 13.127 10.126V3.26348C13.127 1.87598 14.252 0.750977 15.6395 0.750977H20.7395C22.127 0.750977 23.252 1.87598 23.252 3.26348V8.36348C23.252 9.75098 22.127 10.876 20.7395 10.876ZM14.627 9.37598H20.7395C21.302 9.37598 21.752 8.92598 21.752 8.36348V3.26348C21.752 2.70098 21.302 2.25098 20.7395 2.25098H15.6395C15.077 2.25098 14.627 2.70098 14.627 3.26348V9.37598ZM10.127 10.876H3.26445C1.87695 10.876 0.751953 9.75098 0.751953 8.36348V3.26348C0.751953 1.87598 1.87695 0.750977 3.26445 0.750977H8.36445C9.75195 0.750977 10.877 1.87598 10.877 3.26348V10.126C10.877 10.5385 10.5395 10.876 10.127 10.876ZM3.26445 2.25098C2.70195 2.25098 2.25195 2.70098 2.25195 3.26348V8.36348C2.25195 8.92598 2.70195 9.37598 3.26445 9.37598H9.37695V3.26348C9.37695 2.70098 8.92695 2.25098 8.36445 2.25098H3.26445Z" fill="#8DC540"/>
</svg>
