<svg width="18" height="24" viewBox="0 0 18 24" fill="none" xmlns="http://www.w3.org/2000/svg">
<path d="M17.25 1.5H0.75C0.336 1.5 0 1.164 0 0.75C0 0.336 0.336 0 0.75 0H17.25C17.664 0 18 0.336 18 0.75C18 1.164 17.664 1.5 17.25 1.5ZM17.25 24H0.75C0.336 24 0 23.664 0 23.25C0 22.836 0.336 22.5 0.75 22.5H17.25C17.664 22.5 18 22.836 18 23.25C18 23.664 17.664 24 17.25 24Z" fill="#8DC540"/>
<path d="M8.99994 9.99994C8.80784 9.99994 8.61598 9.92705 8.46983 9.78005L5.80602 7.11605C5.28603 6.59691 5 5.90606 5 5.172V0.75C5 0.336 5.336 0 5.75 0C6.164 0 6.5 0.336 6.5 0.75V5.172C6.5 5.50106 6.63383 5.82295 6.86605 6.05606L8.99994 8.18897L11.1338 6.05489C11.366 5.82286 11.4999 5.50097 11.4999 5.17195V0.75C11.4999 0.336 11.8359 0 12.2499 0C12.6639 0 12.9999 0.336 12.9999 0.75V5.172C12.9999 5.90606 12.7138 6.59691 12.1939 7.11605L9.53005 9.78005C9.38389 9.92705 9.19203 9.99994 8.99994 9.99994Z" fill="#8DC540"/>
<path d="M2.75 24C2.336 24 2 23.664 2 23.25V18.7269C2 17.1 2.69286 15.542 3.90303 14.454L5.59602 12.93C5.86391 12.69 6.01002 12.3611 6.01002 12.0009C6.01002 11.6409 5.86391 11.313 5.59602 11.072L3.90303 9.54694C2.69286 8.45803 2 6.89995 2 5.27306V0.75C2 0.336 2.336 0 2.75 0C3.164 0 3.5 0.336 3.5 0.75V5.27306C3.5 6.47494 4.01286 7.62708 4.907 8.43108L6.59998 9.95508C7.17786 10.476 7.51002 11.2211 7.51002 11.9991C7.51002 12.7769 7.17786 13.522 6.59998 14.0431L4.907 15.5671C4.01286 16.3729 3.5 17.5239 3.5 18.7269V23.25C3.5 23.664 3.164 24 2.75 24ZM15.2499 24C14.8359 24 14.4999 23.664 14.4999 23.25V18.7269C14.4999 17.5251 13.987 16.3729 13.0929 15.5689L11.3999 14.0449C10.8221 13.524 10.4899 12.7789 10.4899 12.0009C10.4899 11.2231 10.8221 10.478 11.3999 9.95691L13.0929 8.43291C13.9871 7.62708 14.4999 6.47606 14.4999 5.27306V0.75C14.4999 0.336 14.8359 0 15.2499 0C15.6639 0 15.9999 0.336 15.9999 0.75V5.27306C15.9999 6.89995 15.3071 8.45803 14.0969 9.546L12.4039 11.07C12.136 11.31 11.9899 11.6389 11.9899 11.9991C11.9899 12.3591 12.136 12.687 12.4039 12.928L14.0969 14.452C15.3071 15.542 15.9999 17.1 15.9999 18.7269V23.25C15.9999 23.664 15.6639 24 15.2499 24H15.2499Z" fill="#8DC540"/>
</svg>
