<svg width="614" height="161" viewBox="0 0 614 161" fill="none" xmlns="http://www.w3.org/2000/svg">
<g clip-path="url(#clip0_240_27905)">
<path d="M3.8 158.6C6.3 159.6 11.9 160.2 20.6 160.2C29.3 160.2 38.4 159.7 48 158.6C57.6 157.6 62.4 155.9 62.4 153.7V108.9L99.6 110.2C102.3 110.2 104.4 107.1 105.9 100.9C107.4 94.7003 108.1 88.2003 108.1 81.4003C108.1 74.6003 107.7 70.0003 106.9 67.6003C106.1 65.2003 104.6 64.0003 102.3 64.0003C95.6 64.0003 82.3 64.4003 62.5 65.3003V50.3003L107.9 52.5003C110.1 52.5003 112 49.6003 113.4 43.7003C114.8 37.8003 115.5 29.2003 115.5 18.0003C115.5 6.70031 113.9 1.10031 110.8 1.10031H27.8C17 1.00031 9.7 1.90031 5.8 3.50031C1.9 5.10031 0 7.90031 0 11.8003V153.7C0 155.9 1.3 157.6 3.8 158.6Z" fill="white"/>
<path d="M597.4 18.2002C571.8 -6.49977 461.1 1.00022 453.5 1.30022C443.9 1.60022 420.8 2.40022 411.1 4.70022C401.3 6.90022 396.2 10.2002 395.8 14.5002L390 85.4002H386.9L379.5 12.2002C379.2 8.90022 377.8 6.30022 375.2 4.30022C372.7 2.30022 367.7 1.30022 360.2 1.30022C340.8 1.30022 330.7 5.70022 330 14.5002L323.7 85.4002H320.6C320.6 85.4002 313 14.8002 313 14.5002C311.7 3.10023 302.2 4.30022 293.6 3.00022C281.3 1.20022 204.9 1.00022 204.9 1.00022H202.1H150C139.3 1.00022 131.9 1.80022 128.1 3.50022C124.2 5.10022 122.3 7.90023 122.3 11.8002V153.7C122.3 155.9 123.6 157.6 126.1 158.6C128.6 159.6 134.2 160.2 142.9 160.2C151.6 160.2 160.7 159.7 170.3 158.6C179.9 157.6 184.7 155.9 184.7 153.7V108.9L221.9 110.2C224.6 110.2 226.7 107.1 228.2 100.9C229.7 94.7002 230.4 88.2002 230.4 81.4002C230.4 74.6002 230 70.0002 229.2 67.6002C228.4 65.2002 226.9 64.0002 224.6 64.0002C217.9 64.0002 204.6 64.4002 184.8 65.3002V50.3002L230.2 52.5002C230.9 52.5002 231.6 52.2002 232.2 51.6002C238.3 46.9002 244.6 25.7002 247.7 31.6002C249.3 34.7002 253.3 47.1002 256.1 54.9002C268 87.7002 279.8 120.4 291.7 153.2C292.6 155.7 294.2 157.5 296.4 158.6C298.6 159.6 303.3 160.2 310.5 160.2C329.7 160.2 340 157.9 341.4 153.3L353.3 114.4H356L367.6 153.3C368.3 155.8 369.8 157.6 371.9 158.7C374 159.7 378.1 160.3 384.2 160.3C404.6 160.3 415.7 158 417.3 153.4L459.4 31.5002C464.4 32.1002 465.8 35.0002 466 40.3002C466.2 47.8002 466 38.4002 466 45.9002C466 81.8002 466 117.7 466 153.6C466 156 467.3 157.7 469.8 158.7C472.3 159.7 477.3 160.3 484.6 160.3H537.4C565.7 160.3 585.6 154.3 596.9 142.3C608.2 130.3 613.9 109.4 613.9 79.7002C613.8 49.9002 608.7 29.0002 597.4 18.2002ZM547 116.1C544.7 123.3 541.3 126.8 536.8 126.8L528.3 125.9V35.5002C529.5 34.9002 531.9 34.6002 535.5 34.6002C540.7 34.6002 544.5 37.6002 546.9 43.6002C549.3 49.6002 550.5 61.4002 550.5 79.0002C550.4 96.5002 549.3 108.9 547 116.1Z" fill="white"/>
</g>
<defs>
<clipPath id="clip0_240_27905">
<rect width="613.8" height="160.2" fill="white"/>
</clipPath>
</defs>
</svg>
